<?xml version="1.0" encoding="UTF-8"?>
<svg width="1400px" height="980px" viewBox="0 0 1400 980" version="1.1" xmlns="http://www.w3.org/2000/svg" xmlns:xlink="http://www.w3.org/1999/xlink">
    <title>software enginner 1</title>
    <g id="页面-1" stroke="none" stroke-width="1" fill="none" fill-rule="evenodd">
        <g id="software-enginner-1">
            <g id="Layer_6" fill-rule="nonzero">
                <rect id="矩形" x="0" y="0" width="1400" height="980"></rect>
                <g id="编组" transform="translate(188.650000, 266.821000)" fill="#A9B3C1">
                    <path d="M704.221,116.859 L704.221,116.859 C704.221,110.228 709.597,104.852 716.228,104.852 L746.03,104.852 C759.334,104.852 770.119,94.067 770.119,80.763 L770.119,80.763 C770.119,67.459 759.334,56.674 746.03,56.674 L593.362,56.674 C586.73,56.674 581.355,51.298 581.355,44.667 L581.355,44.667 C581.355,38.036 586.731,32.66 593.362,32.66 L657.507,32.66 C666.526,32.66 673.837,25.349 673.837,16.33 L673.837,16.33 C673.837,7.311 666.526,0 657.507,0 L461.602,0 C452.583,0 445.272,7.311 445.272,16.33 L445.272,16.33 C445.272,25.349 452.583,32.66 461.602,32.66 L498.703,32.66 C505.334,32.66 510.71,38.036 510.71,44.667 L510.71,44.667 C510.71,51.298 505.334,56.674 498.703,56.674 L303.833,56.674 C290.529,56.674 279.745,67.459 279.745,80.763 L279.745,80.763 C279.745,94.067 290.53,104.852 303.833,104.852 L373.311,104.852 C382.714,104.852 390.337,112.475 390.337,121.878 L390.337,121.878 C390.337,131.281 382.714,138.904 373.311,138.904 L231.17,138.904 C220.081,138.904 211.091,147.894 211.091,158.983 L211.091,158.983 C211.091,170.072 220.081,179.062 231.17,179.062 L484.956,179.062 C496.045,179.062 505.035,170.071 505.035,158.983 L505.035,158.983 C505.035,147.894 496.045,138.904 484.956,138.904 L478.01,138.904 C468.607,138.904 460.984,131.281 460.984,121.878 L460.984,121.878 C460.984,112.475 468.607,104.852 478.01,104.852 L621.569,104.852 C628.2,104.852 633.576,110.228 633.576,116.859 L633.576,116.859 C633.576,123.491 628.2,128.866 621.569,128.866 L616.592,128.866 C602.731,128.866 591.494,140.103 591.494,153.964 L591.494,153.964 C591.494,167.825 602.731,179.062 616.592,179.062 L859.779,179.062 C873.64,179.062 884.877,167.825 884.877,153.964 L884.877,153.964 C884.877,140.103 873.64,128.866 859.779,128.866 L716.229,128.866 C709.597,128.866 704.221,123.49 704.221,116.859 Z" id="路径"></path>
                    <path d="M320.854,313.441 L320.854,313.441 C320.854,300.625 310.465,290.235 297.649,290.235 L45.57,290.235 C32.754,290.235 22.365,300.624 22.365,313.44 L22.365,313.44 C22.365,326.256 32.754,336.645 45.57,336.645 L93.971,336.645 C103.449,336.645 111.132,344.328 111.132,353.806 L111.132,353.806 C111.132,363.284 103.449,370.967 93.971,370.967 L19.052,370.967 C8.53,370.967 -2.84217094e-14,379.497 -2.84217094e-14,390.019 L-2.84217094e-14,390.019 C-2.84217094e-14,400.541 8.53,409.07 19.052,409.07 L265.933,409.07 C276.455,409.07 284.985,400.54 284.985,390.019 L284.985,390.019 C284.985,379.497 276.455,370.967 265.933,370.967 L241.91,370.967 C232.432,370.967 224.749,363.284 224.749,353.806 L224.749,353.806 C224.749,344.328 232.432,336.645 241.91,336.645 L297.649,336.645 C310.464,336.646 320.854,326.257 320.854,313.441 Z" id="路径"></path>
                    <path d="M1022.7,287.381 L1022.7,287.381 C1022.7,275.483 1013.055,265.838 1001.157,265.838 L776.264,265.838 C764.366,265.838 754.721,275.483 754.721,287.381 L754.721,287.381 C754.721,299.279 764.366,308.924 776.264,308.924 L828.193,308.924 C836.651,308.924 843.508,315.781 843.508,324.239 L843.508,324.239 C843.508,332.697 836.651,339.554 828.193,339.554 L723.734,339.554 C711.305,339.554 701.229,349.63 701.229,362.059 L701.229,362.059 C701.229,374.488 711.305,384.564 723.734,384.564 L968.976,384.564 C981.405,384.564 991.481,374.488 991.481,362.059 L991.481,360.26 C991.481,348.824 982.21,339.553 970.774,339.553 L970.774,339.553 C962.316,339.553 955.459,332.696 955.459,324.238 L955.459,324.238 C955.459,315.78 962.316,308.923 970.774,308.923 L1001.157,308.923 C1013.055,308.925 1022.7,299.279 1022.7,287.381 Z" id="路径"></path>
                </g>
                <path d="M1177.618,838.073 L222.382,838.073 C203.004,838.073 187.295,822.364 187.295,802.986 L187.295,763.905 L1212.705,763.905 L1212.705,802.986 C1212.705,822.364 1196.996,838.073 1177.618,838.073 Z" id="路径" fill="#33465C"></path>
            </g>
            <g id="编组" transform="translate(178.130000, 145.292000)">
                <path d="M586.168,122.403 C592.239,123.493 598.057,119.441 599.145,113.373 C599.673,110.434 599.024,107.466 597.319,105.014 C595.614,102.563 593.056,100.923 590.117,100.396 C589.453,100.277 588.79,100.219 588.138,100.219 C582.831,100.219 578.109,104.022 577.14,109.425 C576.612,112.364 577.261,115.332 578.966,117.783 C580.671,120.235 583.228,121.876 586.168,122.403 Z" id="路径"></path>
                <path d="M825.817,542.327 L825.817,495.637 C825.817,494.848 824.322,493.607 822.848,492.868 L816.364,492.868 L816.364,550.2 C825.695,548.689 825.817,542.621 825.817,542.327 Z" id="路径"></path>
                <path d="M476.428,90.134 C486.35,90.134 494.423,82.061 494.423,72.139 C494.423,62.217 486.35,54.144 476.428,54.144 C466.506,54.144 458.433,62.216 458.433,72.139 C458.433,82.061 466.506,90.134 476.428,90.134 Z" id="路径"></path>
                <path d="M432.727,81.67 C433.857,86.875 435.897,91.796 438.793,96.296 C439.96,98.11 439.704,100.491 438.18,102.016 L429.272,110.924 L437.644,119.296 L446.552,110.388 C448.076,108.864 450.459,108.608 452.272,109.775 C456.773,112.67 461.694,114.711 466.898,115.841 C469.005,116.299 470.509,118.163 470.509,120.32 L470.509,132.909 L482.349,132.909 L482.349,120.32 C482.349,118.163 483.852,116.299 485.96,115.841 C491.165,114.711 496.085,112.671 500.586,109.775 C502.401,108.608 504.781,108.864 506.306,110.388 L515.214,119.296 L523.586,110.924 L514.678,102.016 C513.153,100.491 512.898,98.109 514.065,96.296 C516.96,91.795 519.001,86.874 520.131,81.67 C520.589,79.563 522.453,78.059 524.61,78.059 L537.2,78.059 L537.2,66.219 L524.61,66.219 C522.453,66.219 520.589,64.716 520.131,62.608 C519.001,57.403 516.961,52.482 514.065,47.981 C512.898,46.167 513.154,43.786 514.679,42.261 L523.586,33.354 L515.214,24.982 L506.306,33.89 C504.781,35.415 502.399,35.672 500.586,34.503 C496.085,31.608 491.164,29.567 485.96,28.437 C483.852,27.979 482.349,26.115 482.349,23.958 L482.349,11.368 L470.509,11.368 L470.509,23.958 C470.509,26.115 469.006,27.979 466.898,28.437 C461.693,29.567 456.772,31.607 452.272,34.503 C450.459,35.672 448.076,35.414 446.552,33.89 L437.644,24.982 L429.272,33.354 L438.18,42.262 C439.705,43.787 439.96,46.169 438.793,47.982 C435.898,52.483 433.857,57.404 432.727,62.608 C432.269,64.715 430.405,66.219 428.248,66.219 L415.658,66.219 L415.658,78.059 L428.248,78.059 C430.405,78.059 432.269,79.562 432.727,81.67 Z M490.537,108.731 C486.67,108.731 486.676,102.731 490.537,102.731 C494.404,102.731 494.397,108.731 490.537,108.731 Z M473.537,34.731 C477.404,34.731 477.398,40.731 473.537,40.731 C469.67,40.731 469.676,34.731 473.537,34.731 Z M476.428,44.978 C491.405,44.978 503.589,57.162 503.589,72.139 C503.589,87.116 491.405,99.3 476.428,99.3 C461.451,99.3 449.267,87.116 449.267,72.139 C449.267,57.162 461.452,44.978 476.428,44.978 Z M438.697,62.951 C442.163,52.653 448.757,44.153 457.887,38.257 C461.143,36.154 464.148,41.35 460.915,43.438 C453.139,48.46 447.436,55.771 444.482,64.547 C443.255,68.192 437.462,66.619 438.697,62.951 Z" id="形状" fill="#60718D" fill-rule="nonzero"></path>
                <path d="M443.576,297.826 L443.576,288.026 L452.742,288.026 L452.742,290.714 C468.508,293.014 530.398,301.078 590.997,295.893 L590.997,288.026 L600.163,288.026 L600.163,297.826 C601.75,296.825 603.519,296.038 605.448,295.693 C606.693,295.471 608.246,295.396 609.968,295.738 C617.997,289.881 620.072,277.194 620.605,270.754 C610.722,269.036 606.152,265.386 605.606,264.924 C604.601,264.074 604.01,262.832 603.985,261.516 C603.958,260.2 604.5,258.936 605.47,258.046 C609.786,254.09 612.647,246.038 614.284,239.496 C602.256,242.872 589.401,240.849 588.733,240.741 C586.904,240.442 585.434,239.072 585.01,237.267 C584.585,235.463 585.289,233.581 586.794,232.498 C590.878,229.557 593.447,221.138 594.708,213.619 C572.274,222.999 542.342,227.91 540.936,228.138 C538.977,228.454 537.069,227.491 536.152,225.754 C535.235,224.016 535.527,221.885 536.879,220.459 C543.671,213.3 543.644,203.939 542.393,197.275 C522.798,220.879 482.541,235.643 480.655,236.325 C479.15,236.869 477.468,236.588 476.221,235.584 C474.974,234.579 474.342,232.997 474.554,231.409 C475.103,227.293 473.724,222.485 471.506,218.232 C468.865,223.914 465.026,229.061 461.592,233.288 C456.224,239.897 450.656,247.109 446.307,255.06 C439.071,268.288 437.618,282.673 437.595,295.589 C437.836,295.618 438.072,295.651 438.294,295.691 C440.221,296.038 441.989,296.824 443.576,297.826 Z M565.981,238.128 C569.673,238.128 569.667,243.857 565.981,243.857 C562.289,243.857 562.295,238.128 565.981,238.128 Z M537.051,272.501 C540.743,272.501 540.737,278.23 537.051,278.23 C533.359,278.23 533.365,272.501 537.051,272.501 Z M527.312,273.36 C531.004,273.36 530.998,279.089 527.312,279.089 C523.62,279.089 523.626,273.36 527.312,273.36 Z M520.37,229.565 C525.526,229.565 525.518,237.565 520.37,237.565 C515.214,237.565 515.222,229.565 520.37,229.565 Z M512.87,248.065 C518.026,248.065 518.018,256.065 512.87,256.065 C507.714,256.065 507.722,248.065 512.87,248.065 Z M496.87,240.065 C502.026,240.065 502.018,248.065 496.87,248.065 C491.714,248.065 491.722,240.065 496.87,240.065 Z M476.496,273.002 C489.82,275.107 503.242,275.719 516.707,274.964 C520.397,274.757 520.373,280.487 516.707,280.693 C502.715,281.478 488.812,280.713 474.973,278.527 C471.336,277.951 472.889,272.432 476.496,273.002 Z M450.948,267.485 C452.384,262.085 455.158,257.25 459.063,253.258 C462.67,249.57 468.322,255.231 464.72,258.915 C461.752,261.949 459.752,265.513 458.662,269.612 C457.338,274.591 449.624,272.466 450.948,267.485 Z" id="形状" fill="#996B53" fill-rule="nonzero"></path>
                <path d="M479.607,576.414 L487.098,555.504 L465.827,555.504 C468.14,562.912 466.548,570.621 462.221,576.414 L479.607,576.414 Z" id="路径" fill="#12B57B" fill-rule="nonzero"></path>
                <polygon id="路径" fill="#60718D" fill-rule="nonzero" points="569.399 591.114 660.507 591.114 660.507 585.58 567.417 585.58"></polygon>
                <path d="M600.163,321.548 L600.163,327.497 L604.022,327.497 C605.798,326.619 610.541,320.306 611.705,313.169 C612.033,311.157 612.275,307.526 610.216,305.811 C608.765,304.603 607.775,304.589 607.074,304.712 C604.514,305.163 601.658,308.42 600.164,310.601 L600.164,317.443 C601.222,316.622 602.141,315.639 602.857,314.441 C603.993,312.543 606.964,314.273 605.825,316.176 C604.46,318.457 602.515,320.33 600.163,321.548 Z" id="路径" fill="#BCA877" fill-rule="nonzero"></path>
                <path d="M605.717,576.414 C602.343,572.457 600.386,567.526 600.176,562.25 L600.031,555.504 L556.642,555.504 L564.133,576.414 L605.717,576.414 Z" id="路径" fill="#12B57B" fill-rule="nonzero"></path>
                <path d="M364.203,541.065 C384.487,541.065 404.771,541.065 425.055,541.065 C495.882,541.065 566.709,541.065 637.537,541.065 C640.672,541.065 641.886,544.019 641.208,546.338 L686.478,546.338 C691.953,546.338 696.407,541.884 696.407,536.408 L696.407,346.594 C696.407,341.118 691.953,336.664 686.478,336.664 L357.262,336.664 C351.787,336.664 347.332,341.118 347.332,346.594 L347.332,536.408 C347.332,541.884 351.787,546.338 357.262,546.338 L360.531,546.338 C359.855,544.019 361.073,541.065 364.203,541.065 Z M670.203,436.731 C674.07,436.731 674.064,442.731 670.203,442.731 C666.336,442.731 666.343,436.731 670.203,436.731 Z M672.728,521.895 C668.297,521.895 668.305,515.02 672.728,515.02 C677.159,515.02 677.152,521.895 672.728,521.895 Z M649.336,350.985 L673.397,350.985 C676.403,350.985 678.839,353.422 678.839,356.427 C678.839,359.432 676.402,361.869 673.397,361.869 L649.336,361.869 C646.33,361.869 643.894,359.432 643.894,356.427 C643.894,353.422 646.33,350.985 649.336,350.985 Z M612.203,439.398 C624.425,439.398 636.647,439.398 648.87,439.398 C652.737,439.398 652.731,445.398 648.87,445.398 C636.648,445.398 624.426,445.398 612.203,445.398 C608.336,445.398 608.343,439.398 612.203,439.398 Z M574.193,515.784 C602.455,515.784 630.717,515.784 658.979,515.784 C663.41,515.784 663.402,522.659 658.979,522.659 C630.717,522.659 602.455,522.659 574.193,522.659 C569.762,522.658 569.769,515.784 574.193,515.784 Z M528.87,357.731 C534.026,357.731 534.018,365.731 528.87,365.731 C523.714,365.731 523.722,357.731 528.87,357.731 Z M514.203,357.731 C519.359,357.731 519.351,365.731 514.203,365.731 C509.047,365.731 509.056,357.731 514.203,357.731 Z M521.87,408.655 C539.981,408.655 554.716,423.39 554.716,441.5 C554.716,459.611 539.981,474.346 521.87,474.346 C503.759,474.346 489.025,459.611 489.025,441.5 C489.025,423.39 503.759,408.655 521.87,408.655 Z M407.537,357.731 C434.648,357.731 461.759,357.731 488.87,357.731 C494.026,357.731 494.018,365.731 488.87,365.731 C461.759,365.731 434.648,365.731 407.537,365.731 C402.38,365.731 402.389,357.731 407.537,357.731 Z M368.72,356.905 C373.151,356.905 373.143,363.78 368.72,363.78 C364.289,363.78 364.296,356.905 368.72,356.905 Z M368.72,374.473 C373.151,374.473 373.143,381.348 368.72,381.348 C364.289,381.348 364.296,374.473 368.72,374.473 Z M368.72,392.042 C373.151,392.042 373.143,398.917 368.72,398.917 C364.289,398.916 364.296,392.042 368.72,392.042 Z M365.282,418.394 C365.282,413.963 372.157,413.971 372.157,418.394 C372.157,450.221 372.157,482.047 372.157,513.874 C372.157,518.305 365.282,518.297 365.282,513.874 C365.282,482.048 365.282,450.221 365.282,418.394 Z" id="形状" fill="#A9B3C1" fill-rule="nonzero"></path>
                <path d="M745.394,472.818 L745.328,472.818 L745.328,472.88 C745.349,472.858 745.372,472.838 745.394,472.818 Z" id="路径" fill="#AE6344" fill-rule="nonzero"></path>
                <path d="M745.328,477.252 L745.328,554.549 C753.094,554.549 760.859,554.549 768.625,554.549 C771.579,554.549 771.574,559.132 768.625,559.132 C760.859,559.132 753.094,559.132 745.328,559.132 L745.328,569.826 L807.199,569.826 L807.199,484.848 C797.333,484.848 787.466,484.848 777.6,484.848 C774.646,484.848 774.651,480.265 777.6,480.265 C787.466,480.265 797.333,480.265 807.199,480.265 L807.199,478.065 C787.256,478.065 767.313,478.065 747.37,478.065 C746.482,478.065 745.808,477.74 745.328,477.252 Z M780.273,559.132 C777.319,559.132 777.324,554.549 780.273,554.549 C783.227,554.549 783.222,559.132 780.273,559.132 Z M790.585,559.132 C787.631,559.132 787.636,554.549 790.585,554.549 C793.539,554.549 793.534,559.132 790.585,559.132 Z M768.243,505.521 C778,499.886 789.536,501.537 793.958,509.195 C798.381,516.854 794.041,527.669 784.284,533.303 C780.373,535.561 776.176,536.649 772.267,536.649 C766.422,536.649 761.218,534.219 758.568,529.629 C754.146,521.969 758.486,511.155 768.243,505.521 Z" id="形状" fill="#AE6344" fill-rule="nonzero"></path>
                <path d="M521.87,465.18 C534.927,465.18 545.549,454.557 545.549,441.501 C545.549,428.444 534.926,417.822 521.87,417.822 C508.813,417.822 498.191,428.445 498.191,441.501 C498.191,454.557 508.813,465.18 521.87,465.18 Z" id="路径" fill="#E3E2D5" fill-rule="nonzero"></path>
                <path d="M548.275,107.352 L555.699,108.684 C557.556,109.017 558.93,110.6 558.999,112.486 C559.124,115.956 559.867,119.348 561.208,122.57 C561.933,124.312 561.345,126.325 559.796,127.402 L553.599,131.713 L557.09,136.729 L563.285,132.418 C564.836,131.339 566.926,131.489 568.307,132.773 C570.863,135.15 573.784,137.026 576.993,138.35 C578.737,139.069 579.743,140.908 579.411,142.765 L578.078,150.189 L584.093,151.268 L585.424,143.844 C585.757,141.987 587.341,140.613 589.227,140.545 C592.696,140.42 596.088,139.676 599.309,138.336 C601.048,137.613 603.063,138.198 604.142,139.748 L608.452,145.944 L613.468,142.454 L609.158,136.258 C608.08,134.709 608.228,132.618 609.514,131.236 C611.889,128.683 613.765,125.76 615.09,122.549 C615.811,120.805 617.646,119.8 619.505,120.132 L626.929,121.463 L628.008,115.448 L620.585,114.116 C618.728,113.783 617.354,112.2 617.285,110.314 C617.16,106.844 616.417,103.452 615.076,100.23 C614.351,98.488 614.939,96.476 616.488,95.398 L622.683,91.087 L619.193,86.071 L612.998,90.382 C611.447,91.46 609.357,91.311 607.976,90.027 C605.42,87.65 602.498,85.774 599.29,84.451 C597.544,83.731 596.537,81.893 596.871,80.035 L598.204,72.611 L592.19,71.532 L590.857,78.956 C590.524,80.813 588.94,82.187 587.054,82.255 C583.587,82.38 580.194,83.124 576.973,84.464 C575.233,85.188 573.219,84.602 572.14,83.052 L567.829,76.856 L562.813,80.346 L567.124,86.542 C568.202,88.091 568.054,90.182 566.768,91.564 C564.391,94.119 562.515,97.042 561.191,100.25 C560.472,101.995 558.638,103.006 556.776,102.668 L549.353,101.336 L548.275,107.352 Z M608.745,93.065 C612.612,93.065 612.606,99.065 608.745,99.065 C604.878,99.065 604.884,93.065 608.745,93.065 Z M569.244,108.01 C571.114,97.59 581.117,90.636 591.533,92.503 C596.58,93.408 600.973,96.225 603.903,100.435 C606.831,104.644 607.946,109.743 607.04,114.791 C605.375,124.07 597.265,130.602 588.151,130.602 C587.03,130.602 585.893,130.503 584.752,130.298 C579.705,129.392 575.312,126.575 572.382,122.366 C569.453,118.155 568.339,113.057 569.244,108.01 Z" id="形状" fill="#445D7B" fill-rule="nonzero"></path>
                <path d="M590.997,327.497 L590.997,305.087 C576.742,306.28 562.429,306.764 548.661,306.764 C504.796,306.764 466.423,301.924 452.742,299.974 L452.742,327.498 L479.095,327.498 L479.095,324.061 C479.095,320.897 481.66,318.332 484.824,318.332 C487.988,318.332 490.553,320.897 490.553,324.061 L490.553,327.498 L553.188,327.498 L553.188,324.061 C553.188,320.897 555.753,318.332 558.917,318.332 C562.081,318.332 564.646,320.897 564.646,324.061 L564.646,327.498 L590.997,327.498 L590.997,327.497 Z" id="路径" fill="#F8DB94" fill-rule="nonzero"></path>
                <path d="M439.718,327.497 L443.576,327.497 L443.576,320.322 C441.708,319.02 439.98,317.526 438.457,315.814 C436.99,314.165 439.414,311.727 440.888,313.383 C441.727,314.327 442.634,315.176 443.577,315.978 L443.577,310.602 C442.083,308.421 439.227,305.163 436.668,304.712 C435.968,304.589 434.976,304.602 433.527,305.811 C431.467,307.527 431.709,311.158 432.037,313.17 C433.199,320.306 437.942,326.619 439.718,327.497 Z" id="路径" fill="#BCA877" fill-rule="nonzero"></path>
                <path d="M609.199,555.504 L609.338,561.969 C609.486,565.659 611.093,569.15 613.864,571.712 C616.634,574.275 620.252,575.602 624.001,575.454 C631.768,575.154 637.844,568.612 637.583,560.853 L637.19,555.503 L609.199,555.503 L609.199,555.504 Z" id="路径" fill="#F8DB94" fill-rule="nonzero"></path>
                <path d="M948.666,591.114 L948.666,578.992 L928.87,578.992 C928.87,583.033 928.87,587.074 928.87,591.114 L948.666,591.114 Z" id="路径" fill="#00A99D" fill-rule="nonzero"></path>
                <path d="M1011.87,491.222 L991.059,491.222 L991.059,515.52 L1011.87,515.52 C1011.87,507.421 1011.87,499.322 1011.87,491.222 Z" id="路径" fill="#F4BB3A" fill-rule="nonzero"></path>
                <path d="M891.378,488.065 L891.378,591.114 L915.439,591.114 L915.439,488.058 C915.415,488.058 915.395,488.065 915.371,488.065 C907.372,488.065 899.375,488.065 891.378,488.065 Z M909.71,558.654 C909.71,562.134 906.889,564.956 903.408,564.956 C899.927,564.956 897.106,562.135 897.106,558.654 L897.106,514.829 C897.106,511.349 899.927,508.527 903.408,508.527 C906.889,508.527 909.71,511.348 909.71,514.829 L909.71,558.654 Z" id="形状" fill="#39B54A" fill-rule="nonzero"></path>
                <path d="M780.846,527.35 C787.21,523.676 790.489,516.935 788.005,512.633 C786.632,510.255 783.733,509.029 780.341,509.029 C777.595,509.029 774.527,509.831 771.681,511.475 C765.317,515.149 762.038,521.89 764.522,526.192 C767.005,530.494 774.483,531.024 780.846,527.35 Z M770.749,522.212 C771.123,522.204 771.644,522.109 772.228,521.861 C772.812,521.606 773.469,521.196 774.105,520.633 C774.729,520.083 775.404,519.311 776.199,518.454 C777.001,517.595 777.888,516.733 778.914,516.079 C779.941,515.431 781.014,515.072 781.958,514.98 C782.903,514.88 783.685,515.049 784.168,515.247 C784.655,515.45 784.878,515.627 784.878,515.627 C784.878,515.627 784.573,515.627 784.095,515.719 C783.616,515.809 782.99,516.046 782.37,516.451 C781.746,516.852 781.115,517.429 780.515,518.102 C779.919,518.773 779.289,519.62 778.473,520.497 C777.653,521.377 776.698,522.196 775.602,522.733 C774.52,523.261 773.421,523.434 772.534,523.357 C771.638,523.277 770.993,522.958 770.638,522.676 C770.458,522.532 770.337,522.414 770.263,522.321 C770.191,522.234 770.152,522.187 770.152,522.187 C770.152,522.187 770.373,522.224 770.749,522.212 Z" id="形状" fill="#7F2E19" fill-rule="nonzero"></path>
                <path d="M958.87,466.565 C958.481,466.565 958.142,466.491 957.832,466.382 L957.832,591.114 L981.893,591.114 L981.893,466.386 C981.586,466.492 981.253,466.565 980.87,466.565 C973.537,466.565 966.203,466.565 958.87,466.565 Z M975.591,561.994 L963.847,561.994 L963.847,516.926 L975.591,516.926 L975.591,561.994 Z M975.591,506.425 L963.847,506.425 L963.847,486.088 L975.591,486.088 L975.591,506.425 Z" id="形状" fill="#999999" fill-rule="nonzero"></path>
                <path d="M1011.87,457.065 C1011.87,457.031 1011.879,457.002 1011.88,456.968 L993.207,456.968 C992.022,456.968 991.059,457.931 991.059,459.116 L991.059,464.845 L991.059,482.056 L1011.87,482.056 C1011.87,473.726 1011.87,465.395 1011.87,457.065 Z M1007.959,469.285 C1006.721,469.34 1005.667,468.192 1005.667,466.993 C1005.667,466.038 1005.667,465.083 1005.667,464.129 C1005.667,462.844 1006.717,461.893 1007.959,461.837 C1009.197,461.782 1010.251,462.93 1010.251,464.129 C1010.251,465.084 1010.251,466.039 1010.251,466.993 C1010.25,468.278 1009.2,469.23 1007.959,469.285 Z" id="形状" fill="#666666" fill-rule="nonzero"></path>
                <path d="M997.36,565.052 C997.36,562.098 1001.943,562.103 1001.943,565.052 C1001.943,573.739 1001.943,582.427 1001.943,591.114 L1011.87,591.114 C1011.87,568.972 1011.87,546.829 1011.87,524.687 L991.059,524.687 L991.059,591.114 L997.361,591.114 C997.36,582.427 997.36,573.739 997.36,565.052 Z M999.27,550.921 C1002.224,550.921 1002.219,555.504 999.27,555.504 C996.316,555.504 996.321,550.921 999.27,550.921 Z" id="形状" fill="#666666" fill-rule="nonzero"></path>
                <path d="M928.87,436.065 C928.87,480.652 928.87,525.239 928.87,569.826 L948.666,569.826 L948.666,464.846 L948.666,436.584 C948.666,435.399 947.703,434.436 946.518,434.436 L928.397,434.436 C928.686,434.869 928.87,435.406 928.87,436.065 Z M937.399,448.184 C937.399,445.23 941.982,445.235 941.982,448.184 C941.982,461.551 941.982,474.918 941.982,488.286 C941.982,491.24 937.399,491.235 937.399,488.286 C937.399,474.918 937.399,461.551 937.399,448.184 Z M939.308,496.306 C942.262,496.306 942.257,500.889 939.308,500.889 C936.355,500.889 936.36,496.306 939.308,496.306 Z M939.308,505.854 C942.262,505.854 942.257,510.437 939.308,510.437 C936.355,510.437 936.36,505.854 939.308,505.854 Z" id="形状" fill="#808080" fill-rule="nonzero"></path>
                <path d="M141.764,245.002 L339.408,245.002 C343.988,245.002 347.715,241.275 347.715,236.695 L347.715,116.964 C347.715,112.384 343.988,108.657 339.408,108.657 L141.764,108.657 C137.184,108.657 133.457,112.384 133.457,116.964 L133.457,236.696 C133.457,241.276 137.183,245.002 141.764,245.002 Z M140.618,121.167 C140.618,117.85 143.316,115.152 146.633,115.152 L334.538,115.152 C337.855,115.152 340.553,117.85 340.553,121.167 L340.553,232.493 C340.553,235.81 337.855,238.508 334.538,238.508 L146.633,238.508 C143.316,238.508 140.618,235.81 140.618,232.493 L140.618,121.167 Z" id="形状" fill="#7989A3" fill-rule="nonzero"></path>
                <path d="M862.87,458.065 C862.87,471.64 862.87,485.214 862.87,498.789 L882.211,498.789 L882.211,484.705 L882.211,459.117 C882.211,457.932 881.248,456.969 880.063,456.969 L862.667,456.969 C862.79,457.293 862.87,457.652 862.87,458.065 Z M867.603,468.139 C870.557,468.139 870.552,472.722 867.603,472.722 C864.649,472.722 864.654,468.139 867.603,468.139 Z M865.311,477.019 C865.311,475.734 866.361,474.783 867.603,474.727 C868.841,474.672 869.895,475.82 869.895,477.019 C869.895,477.974 869.895,478.929 869.895,479.883 C869.895,481.168 868.845,482.119 867.603,482.175 C866.366,482.23 865.311,481.082 865.311,479.883 C865.311,478.929 865.311,477.974 865.311,477.019 Z" id="形状" fill="#0071BC" fill-rule="nonzero"></path>
                <path d="M882.211,591.114 L882.211,541.419 L862.87,541.419 C862.87,557.984 862.87,574.549 862.87,591.114 L882.211,591.114 Z M874.764,576.557 C871.81,576.557 871.815,571.974 874.764,571.974 C877.718,571.974 877.713,576.557 874.764,576.557 Z M872.854,555.122 C872.854,552.168 877.437,552.173 877.437,555.122 C877.437,558.687 877.437,562.251 877.437,565.816 C877.437,568.77 872.854,568.765 872.854,565.816 C872.854,562.251 872.854,558.686 872.854,555.122 Z" id="形状" fill="#0071BC" fill-rule="nonzero"></path>
                <path d="M331.387,124.318 L149.784,124.318 L149.784,229.342 L331.387,229.342 L331.387,124.318 Z M311.585,139.211 C315.281,139.211 318.277,142.207 318.277,145.902 C318.277,149.597 315.281,152.593 311.585,152.593 C307.889,152.593 304.894,149.597 304.894,145.902 C304.894,142.207 307.89,139.211 311.585,139.211 Z M287.919,139.211 C291.615,139.211 294.61,142.207 294.61,145.902 C294.61,149.597 291.614,152.593 287.919,152.593 C284.224,152.593 281.228,149.597 281.228,145.902 C281.228,142.207 284.223,139.211 287.919,139.211 Z M264.252,139.211 C267.948,139.211 270.943,142.207 270.943,145.902 C270.943,149.597 267.947,152.593 264.252,152.593 C260.557,152.593 257.561,149.597 257.561,145.902 C257.561,142.207 260.556,139.211 264.252,139.211 Z M240.585,139.211 C244.281,139.211 247.276,142.207 247.276,145.902 C247.276,149.597 244.28,152.593 240.585,152.593 C236.889,152.593 233.893,149.597 233.893,145.902 C233.893,142.207 236.89,139.211 240.585,139.211 Z M162.629,132.909 L183.361,132.909 L183.361,171.732 L162.629,171.732 L162.629,132.909 Z M212.317,218.565 L163.128,218.565 L163.128,180.661 L212.317,180.661 L212.317,218.565 Z M212.317,171.731 L191.585,171.731 L191.585,132.908 L212.317,132.908 L212.317,171.731 Z M247.777,218.565 L233.394,218.565 L233.394,180.661 L247.777,180.661 L247.777,218.565 Z M271.444,218.565 L257.061,218.565 L257.061,180.661 L271.444,180.661 L271.444,218.565 Z M295.11,218.565 L280.727,218.565 L280.727,180.661 L295.11,180.661 L295.11,218.565 Z M318.777,218.565 L304.394,218.565 L304.394,180.661 L318.777,180.661 L318.777,218.565 Z M320.37,171.731 L233.773,171.731 L233.773,165.564 L320.37,165.564 L320.37,171.731 Z" id="形状" fill="#FFFFFF" fill-rule="nonzero"></path>
                <path d="M882.211,532.253 L882.211,507.955 L862.87,507.955 C862.87,516.054 862.87,524.154 862.87,532.253 L882.211,532.253 Z" id="路径" fill="#F4BB3A" fill-rule="nonzero"></path>
                <rect id="矩形" fill="#85402A" fill-rule="nonzero" x="741.89" y="578.992" width="68.746" height="12.122"></rect>
                <path d="M167.785,420.576 C167.785,417.733 165.472,415.42 162.629,415.42 C160.855,415.42 159.288,416.321 158.36,417.689 C158.673,417.614 159.005,417.565 159.37,417.565 C164.037,417.565 164.458,424.1 160.681,425.344 C161.283,425.591 161.939,425.732 162.629,425.732 C165.472,425.732 167.785,423.419 167.785,420.576 Z" id="路径" fill="#F09B36" fill-rule="nonzero"></path>
                <path d="M893.955,124.318 L712.352,124.318 L712.352,229.342 L893.955,229.342 L893.955,124.318 Z M746.87,203.755 L725.483,203.755 L725.483,182.368 L746.87,182.368 L746.87,203.755 Z M777.563,203.755 L756.176,203.755 L756.176,182.368 L777.563,182.368 L777.563,203.755 Z M808.257,203.755 L786.87,203.755 L786.87,182.368 L808.257,182.368 L808.257,203.755 Z M838.95,219.632 L817.563,219.632 L817.563,198.245 L838.95,198.245 L838.95,219.632 L838.95,219.632 Z M838.95,190.505 L817.563,190.505 L817.563,169.118 L838.95,169.118 L838.95,190.505 L838.95,190.505 Z M870.2,219.632 L848.813,219.632 L848.813,198.245 L870.2,198.245 L870.2,219.632 Z M870.2,190.505 L848.813,190.505 L848.813,169.118 L870.2,169.118 L870.2,190.505 Z M880.825,161.377 L725.483,161.377 L725.483,135.377 L880.825,135.377 L880.825,161.377 L880.825,161.377 Z" id="形状" fill="#FFFFFF" fill-rule="nonzero"></path>
                <path d="M185.428,471.72 C183.585,471.72 181.741,471.72 179.898,471.72 L201.399,526.86 C203.244,526.86 205.089,526.86 206.933,526.86 L185.428,471.72 Z" id="路径" fill="#F09B36" fill-rule="nonzero"></path>
                <path d="M62.132,591.114 L118.18,591.114 L118.18,563.142 L62.203,563.142 C62.203,572.227 62.203,581.313 62.203,590.398 C62.203,590.653 62.169,590.885 62.132,591.114 Z M86.863,574.791 C94.183,574.791 101.503,574.791 108.823,574.791 C112.515,574.791 112.509,580.52 108.823,580.52 C101.503,580.52 94.183,580.52 86.863,580.52 C83.17,580.519 83.176,574.791 86.863,574.791 Z M76.742,574.791 C80.434,574.791 80.428,580.52 76.742,580.52 C73.049,580.519 73.055,574.791 76.742,574.791 Z M65.093,574.791 C68.785,574.791 68.779,580.52 65.093,580.52 C61.401,580.519 61.407,574.791 65.093,574.791 Z" id="形状" fill="#A17A94" fill-rule="nonzero"></path>
                <path d="M180.488,459.055 C178.634,459.027 176.78,458.999 174.925,458.97 L177.83,466.421 C179.673,466.421 181.517,466.421 183.36,466.421 L180.488,459.055 Z" id="路径" fill="#31B78D" fill-rule="nonzero"></path>
                <path d="M170.451,433.319 L165.653,435.191 L173.577,455.512 C175.431,455.54 177.285,455.568 179.139,455.597 L170.451,433.319 Z" id="路径" fill="#31B78D" fill-rule="nonzero"></path>
                <path d="M255.051,582.238 L207.152,582.238 C205.544,583.059 201.924,586.569 197.871,591.114 L264.331,591.114 C260.279,586.569 256.659,583.059 255.051,582.238 Z" id="路径" fill="#4AC6E0" fill-rule="nonzero"></path>
                <path d="M224.956,573.072 L208.274,530.297 C206.429,530.297 204.584,530.297 202.739,530.297 L219.418,573.072 L224.956,573.072 Z" id="路径" fill="#31B78D" fill-rule="nonzero"></path>
                <polygon id="路径" fill="#F4BB3A" fill-rule="nonzero" points="68.349 494.014 73.256 494.014 69.436 463.059 64.602 463.656"></polygon>
                <rect id="矩形" fill="#CA6A4F" fill-rule="nonzero" transform="translate(65.561413, 451.431887) rotate(-7.036186) translate(-65.561413, -451.431887) " x="63.1263364" y="446.276726" width="4.87015219" height="10.3103222"></rect>
                <path d="M118.18,556.268 L118.18,534.88 L62.203,534.88 C62.203,542.009 62.203,549.139 62.203,556.268 L118.18,556.268 Z" id="路径" fill="#895881" fill-rule="nonzero"></path>
                <polygon id="路径" fill="#BEC0C2" fill-rule="nonzero" points="110.238 476.197 95.853 473.728 92.37 494.014 107.176 494.014"></polygon>
                <path d="M112.86,460.935 C113.143,459.299 112.04,457.741 110.402,457.456 L101.944,456.014 C101.147,455.876 100.352,456.055 99.698,456.519 C99.043,456.982 98.608,457.671 98.474,458.461 L97.016,466.952 L111.402,469.421 L112.86,460.935 Z" id="路径" fill="#C2CE2F" fill-rule="nonzero"></path>
                <path d="M704.332,245.002 L901.976,245.002 C906.557,245.002 910.283,241.275 910.283,236.695 L910.283,116.964 C910.283,112.384 906.557,108.657 901.976,108.657 L704.332,108.657 C699.751,108.657 696.025,112.384 696.025,116.964 L696.025,236.696 C696.025,241.276 699.751,245.002 704.332,245.002 Z M703.186,121.167 C703.186,117.85 705.885,115.152 709.201,115.152 L897.106,115.152 C900.422,115.152 903.121,117.85 903.121,121.167 L903.121,232.493 C903.121,235.81 900.422,238.508 897.106,238.508 L709.202,238.508 C705.886,238.508 703.186,235.81 703.186,232.493 L703.186,121.167 L703.186,121.167 Z" id="形状" fill="#7989A3" fill-rule="nonzero"></path>
                <path d="M1031.273,606.065 C994.752,606.065 958.231,606.065 921.71,606.065 C792.185,606.065 662.661,606.065 533.136,606.065 L533.136,618.612 L1034.438,618.612 C1034.503,618.612 1034.576,618.548 1034.576,618.463 L1034.576,604.234 C1033.968,605.295 1032.869,606.065 1031.273,606.065 Z" id="路径" fill="#B55232" fill-rule="nonzero"></path>
                <path d="M62.203,528.005 L118.18,528.005 L118.18,505.663 C118.18,504.293 117.067,503.18 115.698,503.18 L62.204,503.18 C62.203,511.455 62.203,519.73 62.203,528.005 Z" id="路径" fill="#A17A94" fill-rule="nonzero"></path>
                <path d="M426.524,555.504 L430.139,566.776 C431.833,572.047 436.353,575.628 441.485,576.414 L445.713,576.414 C446.45,576.302 447.187,576.147 447.919,575.912 C455.336,573.538 459.433,565.565 457.055,558.139 L456.209,555.504 L426.524,555.504 L426.524,555.504 Z" id="路径" fill="#F8DB94" fill-rule="nonzero"></path>
                <path d="M269.108,305.798 L266.375,309.894 C267.1,310.352 267.825,310.811 268.551,311.269 C270.418,312.449 268.692,315.422 266.816,314.237 C266.033,313.742 265.25,313.248 264.467,312.753 L258.164,322.197 L245.24,341.562 C247.857,344.98 251.886,349.939 255.452,353.394 L259.152,347.85 C259.031,347.784 258.913,347.709 258.804,347.62 C257.754,346.761 256.703,345.901 255.653,345.042 C254.931,344.451 255.047,343.218 255.653,342.611 C256.355,341.909 257.366,342.024 258.084,342.611 C259.068,343.416 260.053,344.222 261.037,345.027 L283.74,311.012 C278.928,309.033 274.047,307.294 269.108,305.798 Z" id="路径" fill="#F09B36" fill-rule="nonzero"></path>
                <path d="M533.136,576.319 L533.136,591.114 L559.663,591.114 L546.905,555.504 L501.402,555.504 C498.402,567.643 494.561,579.52 489.886,591.114 L510.602,591.114 L510.602,576.319 C510.602,570.106 515.656,565.052 521.869,565.052 C528.082,565.051 533.136,570.105 533.136,576.319 Z" id="路径" fill="#60718D" fill-rule="nonzero"></path>
                <path d="M476.323,585.58 L446.329,585.58 C445.421,585.688 444.513,585.758 443.612,585.758 C442.699,585.758 441.796,585.686 440.899,585.58 L383.232,585.58 L383.232,591.114 L474.34,591.114 L476.323,585.58 Z" id="路径" fill="#60718D" fill-rule="nonzero"></path>
                <path d="M195.825,374.808 L198.668,370.718 C197.294,369.655 196.029,368.473 194.874,367.183 L191.585,371.919 C192.837,372.728 194.088,373.537 195.34,374.346 C195.547,374.48 195.703,374.638 195.825,374.808 Z" id="路径" fill="#F09B36" fill-rule="nonzero"></path>
                <path d="M217.489,299.027 C219.934,308.602 225.676,324.172 238.543,335.082 L259.776,303.269 C245.978,299.983 231.798,298.552 217.489,299.027 Z M230.899,314.083 C228.427,311.236 226.567,308.059 225.289,304.512 C224.537,302.424 227.859,301.533 228.603,303.598 C229.672,306.566 231.262,309.271 233.329,311.653 C234.774,313.317 232.351,315.757 230.899,314.083 Z M235.814,319.19 C233.599,319.19 233.602,315.753 235.814,315.753 C238.03,315.753 238.026,319.19 235.814,319.19 Z" id="形状" fill="#31B78D" fill-rule="nonzero"></path>
                <path d="M509.87,606.065 C473.349,606.065 436.828,606.065 400.307,606.065 C269.926,606.065 139.546,606.065 9.165,606.065 L9.165,618.463 C9.165,618.548 9.238,618.612 9.303,618.612 L510.604,618.612 L510.604,605.992 C510.369,606.031 510.13,606.065 509.87,606.065 Z" id="路径" fill="#B55232" fill-rule="nonzero"></path>
                <path d="M224.387,333.711 C224.029,333.275 223.69,332.833 223.346,332.392 L220.408,330.416 L198.092,362.55 C199.298,363.858 200.424,365.236 201.479,366.673 L224.387,333.711 Z" id="路径" fill="#31B78D" fill-rule="nonzero"></path>
                <path d="M193.958,377.494 C193.841,377.45 193.723,377.391 193.605,377.314 C192.278,376.457 190.951,375.599 189.625,374.742 L167.21,407.018 C168.863,407.578 170.387,408.422 171.708,409.509 L193.958,377.494 Z" id="路径" fill="#F09B36" fill-rule="nonzero"></path>
                <path d="M521.87,574.217 C520.711,574.217 519.769,575.159 519.769,576.318 L519.769,640.862 C519.769,642.02 520.711,642.962 521.87,642.962 C523.028,642.962 523.97,642.02 523.97,640.862 L523.97,576.318 C523.97,575.159 523.028,574.217 521.87,574.217 Z" id="路径" fill="#CA6A4F" fill-rule="nonzero"></path>
                <rect id="矩形" fill="#31B78D" fill-rule="nonzero" x="162.629" y="132.909" width="20.732" height="38.823"></rect>
                <path d="M191.585,171.731 L212.317,171.731 L212.317,132.908 L191.585,132.908 L191.585,171.731 L191.585,171.731 Z M200.87,157.065 C206.026,157.065 206.018,165.065 200.87,165.065 C195.714,165.065 195.722,157.065 200.87,157.065 Z" id="形状" fill="#31B78D" fill-rule="nonzero"></path>
                <path d="M163.128,218.565 L212.317,218.565 L212.317,180.661 L163.128,180.661 L163.128,218.565 Z M180.203,202.398 C184.87,202.398 189.536,202.398 194.203,202.398 C199.359,202.398 199.351,210.398 194.203,210.398 C189.536,210.398 184.87,210.398 180.203,210.398 C175.047,210.398 175.056,202.398 180.203,202.398 Z" id="形状" fill="#F09B36" fill-rule="nonzero"></path>
                <rect id="矩形" fill="#EF4D4E" fill-rule="nonzero" x="233.773" y="165.565" width="86.597" height="6.167"></rect>
                <circle id="椭圆形" fill="#EF4D4E" fill-rule="nonzero" cx="240.585" cy="145.902" r="6.691"></circle>
                <circle id="椭圆形" fill="#EF4D4E" fill-rule="nonzero" cx="264.252" cy="145.902" r="6.691"></circle>
                <circle id="椭圆形" fill="#EF4D4E" fill-rule="nonzero" cx="287.919" cy="145.902" r="6.691"></circle>
                <circle id="椭圆形" fill="#EF4D4E" fill-rule="nonzero" cx="311.585" cy="145.902" r="6.691"></circle>
                <rect id="矩形" fill="#F09B36" fill-rule="nonzero" x="233.394" y="180.661" width="14.383" height="37.904"></rect>
                <rect id="矩形" fill="#31B78D" fill-rule="nonzero" x="257.061" y="180.661" width="14.383" height="37.904"></rect>
                <rect id="矩形" fill="#F09B36" fill-rule="nonzero" x="280.727" y="180.661" width="14.383" height="37.904"></rect>
                <rect id="矩形" fill="#31B78D" fill-rule="nonzero" x="304.394" y="180.661" width="14.383" height="37.904"></rect>
                <path d="M725.483,161.377 L880.824,161.377 L880.824,135.377 L725.483,135.377 L725.483,161.377 Z M793.37,148.065 C797.237,148.065 797.231,154.065 793.37,154.065 C789.503,154.065 789.509,148.065 793.37,148.065 Z M744.87,149.065 C755.87,149.065 766.87,149.065 777.87,149.065 C781.737,149.065 781.731,155.065 777.87,155.065 C766.87,155.065 755.87,155.065 744.87,155.065 C741.003,155.065 741.009,149.065 744.87,149.065 Z" id="形状" fill="#0071BC" fill-rule="nonzero"></path>
                <rect id="矩形" fill="#999999" fill-rule="nonzero" x="725.483" y="182.368" width="21.387" height="21.387"></rect>
                <rect id="矩形" fill="#445D7B" fill-rule="nonzero" x="756.177" y="182.368" width="21.387" height="21.387"></rect>
                <rect id="矩形" fill="#445D7B" fill-rule="nonzero" x="786.87" y="182.368" width="21.387" height="21.387"></rect>
                <rect id="矩形" fill="#EF4D4E" fill-rule="nonzero" x="817.563" y="169.118" width="21.387" height="21.387"></rect>
                <rect id="矩形" fill="#60718D" fill-rule="nonzero" x="848.813" y="169.118" width="21.387" height="21.387"></rect>
                <rect id="矩形" fill="#EF4D4E" fill-rule="nonzero" x="817.563" y="198.245" width="21.387" height="21.387"></rect>
                <rect id="矩形" fill="#60718D" fill-rule="nonzero" x="848.813" y="198.245" width="21.387" height="21.387"></rect>
                <path d="M62.203,590.398 C62.203,581.313 62.203,572.227 62.203,563.142 L57.073,563.142 L57.073,591.114 L62.132,591.114 C62.169,590.885 62.203,590.653 62.203,590.398 Z" id="路径" fill="#FFFFFF" fill-rule="nonzero"></path>
                <path d="M62.203,534.88 L57.073,534.88 L57.073,556.268 L62.203,556.268 C62.203,549.139 62.203,542.009 62.203,534.88 Z" id="路径" fill="#FFFFFF" fill-rule="nonzero"></path>
                <path d="M59.555,503.18 C58.186,503.18 57.073,504.293 57.073,505.663 L57.073,528.005 L62.203,528.005 C62.203,519.73 62.203,511.455 62.203,503.18 L59.555,503.18 L59.555,503.18 Z" id="路径" fill="#FFFFFF" fill-rule="nonzero"></path>
                <path d="M509.87,606.065 C510.13,606.065 510.369,606.031 510.603,605.992 L510.603,600.28 L122.763,600.28 L52.49,600.28 L9.302,600.28 C9.236,600.28 9.164,600.333 9.164,600.418 L9.164,606.065 C139.545,606.065 269.925,606.065 400.306,606.065 C436.828,606.065 473.349,606.065 509.87,606.065 Z" id="路径" fill="#FFFFFF" fill-rule="nonzero"></path>
                <path d="M1031.273,606.065 C1032.868,606.065 1033.968,605.295 1034.575,604.234 L1034.575,600.417 C1034.575,600.332 1034.503,600.279 1034.437,600.279 L1024.285,600.279 L991.058,600.279 L981.892,600.279 L957.831,600.279 L948.665,600.279 L924.604,600.279 L915.438,600.279 L891.377,600.279 L882.211,600.279 L848.984,600.279 L815.219,600.279 L737.307,600.279 L533.136,600.279 L533.136,606.064 C662.661,606.064 792.185,606.064 921.71,606.064 C958.231,606.065 994.752,606.065 1031.273,606.065 Z" id="路径" fill="#FFFFFF" fill-rule="nonzero"></path>
                <path d="M407.537,365.731 C434.648,365.731 461.759,365.731 488.87,365.731 C494.018,365.731 494.026,357.731 488.87,357.731 C461.759,357.731 434.648,357.731 407.537,357.731 C402.389,357.731 402.38,365.731 407.537,365.731 Z" id="路径" fill="#FFFFFF" fill-rule="nonzero"></path>
                <path d="M514.203,365.731 C519.351,365.731 519.359,357.731 514.203,357.731 C509.056,357.731 509.047,365.731 514.203,365.731 Z" id="路径" fill="#FFFFFF" fill-rule="nonzero"></path>
                <path d="M528.87,365.731 C534.018,365.731 534.026,357.731 528.87,357.731 C523.722,357.731 523.714,365.731 528.87,365.731 Z" id="路径" fill="#FFFFFF" fill-rule="nonzero"></path>
                <path d="M458.662,269.612 C459.752,265.513 461.752,261.949 464.72,258.915 C468.322,255.232 462.671,249.57 459.063,253.258 C455.158,257.251 452.383,262.085 450.948,267.485 C449.624,272.466 457.338,274.591 458.662,269.612 Z" id="路径" fill="#FFFFFF" fill-rule="nonzero"></path>
                <path d="M496.87,248.065 C502.018,248.065 502.026,240.065 496.87,240.065 C491.722,240.065 491.714,248.065 496.87,248.065 Z" id="路径" fill="#FFFFFF" fill-rule="nonzero"></path>
                <path d="M520.37,237.565 C525.518,237.565 525.526,229.565 520.37,229.565 C515.222,229.565 515.214,237.565 520.37,237.565 Z" id="路径" fill="#FFFFFF" fill-rule="nonzero"></path>
                <path d="M512.87,256.065 C518.018,256.065 518.026,248.065 512.87,248.065 C507.722,248.065 507.714,256.065 512.87,256.065 Z" id="路径" fill="#FFFFFF" fill-rule="nonzero"></path>
                <path d="M637.537,541.065 C566.71,541.065 495.882,541.065 425.055,541.065 C404.771,541.065 384.487,541.065 364.203,541.065 C361.073,541.065 359.855,544.019 360.531,546.338 L493.608,546.338 L550.132,546.338 L641.207,546.338 C641.886,544.019 640.672,541.065 637.537,541.065 Z" id="路径" fill="#FFFFFF" fill-rule="nonzero"></path>
                <path d="M496.834,555.504 L484.077,591.114 L489.887,591.114 C494.561,579.52 498.402,567.643 501.403,555.504 L496.834,555.504 Z" id="路径" fill="#FFFFFF" fill-rule="nonzero"></path>
                <path d="M180.203,210.398 C184.87,210.398 189.536,210.398 194.203,210.398 C199.351,210.398 199.359,202.398 194.203,202.398 C189.536,202.398 184.87,202.398 180.203,202.398 C175.056,202.398 175.047,210.398 180.203,210.398 Z" id="路径" fill="#FFFFFF" fill-rule="nonzero"></path>
                <path d="M200.87,165.065 C206.018,165.065 206.026,157.065 200.87,157.065 C195.722,157.065 195.714,165.065 200.87,165.065 Z" id="路径" fill="#FFFFFF" fill-rule="nonzero"></path>
                <path d="M285.934,307.721 C281.373,305.751 275.249,303.934 271.089,302.83 L269.108,305.798 C274.047,307.294 278.928,309.033 283.738,311.01 L285.934,307.721 Z" id="路径" fill="#FFFFFF" fill-rule="nonzero"></path>
                <path d="M259.775,303.269 L262.537,299.131 C244.717,289.996 224.68,292.649 216.436,294.347 C216.688,295.65 217.031,297.234 217.488,299.028 C231.798,298.552 245.978,299.983 259.775,303.269 Z" id="路径" fill="#FFFFFF" fill-rule="nonzero"></path>
                <path d="M159.37,417.565 C159.005,417.565 158.673,417.614 158.36,417.689 C157.801,418.513 157.473,419.507 157.473,420.576 C157.473,422.729 158.802,424.573 160.681,425.344 C164.458,424.1 164.037,417.565 159.37,417.565 Z" id="路径" fill="#FFFFFF" fill-rule="nonzero"></path>
                <path d="M444.483,64.546 C447.437,55.77 453.139,48.46 460.916,43.437 C464.149,41.349 461.144,36.153 457.888,38.256 C448.758,44.153 442.164,52.652 438.698,62.95 C437.462,66.619 443.255,68.192 444.483,64.546 Z" id="路径" fill="#FFFFFF" fill-rule="nonzero"></path>
                <path d="M473.537,40.731 C477.398,40.731 477.404,34.731 473.537,34.731 C469.676,34.731 469.67,40.731 473.537,40.731 Z" id="路径" fill="#FFFFFF" fill-rule="nonzero"></path>
                <path d="M490.537,102.731 C486.676,102.731 486.67,108.731 490.537,108.731 C494.397,108.731 494.404,102.731 490.537,102.731 Z" id="路径" fill="#FFFFFF" fill-rule="nonzero"></path>
                <path d="M608.745,99.065 C612.606,99.065 612.612,93.065 608.745,93.065 C604.884,93.065 604.878,99.065 608.745,99.065 Z" id="路径" fill="#FFFFFF" fill-rule="nonzero"></path>
                <path d="M744.87,155.065 C755.87,155.065 766.87,155.065 777.87,155.065 C781.731,155.065 781.737,149.065 777.87,149.065 C766.87,149.065 755.87,149.065 744.87,149.065 C741.009,149.065 741.003,155.065 744.87,155.065 Z" id="路径" fill="#FFFFFF" fill-rule="nonzero"></path>
                <path d="M793.37,154.065 C797.231,154.065 797.237,148.065 793.37,148.065 C789.509,148.065 789.503,154.065 793.37,154.065 Z" id="路径" fill="#FFFFFF" fill-rule="nonzero"></path>
                <path d="M745.328,477.252 C745.808,477.74 746.482,478.065 747.37,478.065 C767.313,478.065 787.256,478.065 807.199,478.065 L807.199,472.818 L745.394,472.818 C745.372,472.839 745.349,472.859 745.328,472.88 L745.328,477.252 Z" id="路径" fill="#FFFFFF" fill-rule="nonzero"></path>
                <path d="M862.667,456.968 L860.298,456.968 C859.113,456.968 858.15,457.931 858.15,459.116 L858.15,498.788 L862.87,498.788 C862.87,485.213 862.87,471.639 862.87,458.064 C862.87,457.652 862.79,457.293 862.667,456.968 Z" id="路径" fill="#FFFFFF" fill-rule="nonzero"></path>
                <path d="M862.87,541.419 L858.151,541.419 L858.151,591.114 L862.87,591.114 C862.87,574.549 862.87,557.984 862.87,541.419 Z" id="路径" fill="#FFFFFF" fill-rule="nonzero"></path>
                <path d="M862.87,507.955 L858.151,507.955 L858.151,532.253 L862.87,532.253 C862.87,524.153 862.87,516.054 862.87,507.955 Z" id="路径" fill="#FFFFFF" fill-rule="nonzero"></path>
                <path d="M915.37,488.065 C915.394,488.065 915.414,488.059 915.438,488.058 L915.438,484.705 C915.438,483.52 914.475,482.557 913.29,482.557 L893.526,482.557 C892.341,482.557 891.378,483.52 891.378,484.705 L891.378,488.065 C899.375,488.065 907.372,488.065 915.37,488.065 Z" id="路径" fill="#FFFFFF" fill-rule="nonzero"></path>
                <path d="M928.87,578.992 L924.605,578.992 L924.605,591.114 L928.87,591.114 C928.87,587.073 928.87,583.032 928.87,578.992 Z" id="路径" fill="#FFFFFF" fill-rule="nonzero"></path>
                <path d="M928.396,434.435 L926.752,434.435 C925.567,434.435 924.604,435.398 924.604,436.583 L924.604,484.705 L924.604,569.826 L928.87,569.826 C928.87,525.239 928.87,480.652 928.87,436.065 C928.87,435.406 928.686,434.869 928.396,434.435 Z" id="路径" fill="#FFFFFF" fill-rule="nonzero"></path>
                <path d="M958.87,466.565 C966.203,466.565 973.537,466.565 980.87,466.565 C981.252,466.565 981.586,466.492 981.893,466.386 L981.893,464.845 C981.893,463.66 980.93,462.697 979.745,462.697 L959.981,462.697 C958.796,462.697 957.833,463.66 957.833,464.845 L957.833,466.381 C958.142,466.491 958.481,466.565 958.87,466.565 Z" id="路径" fill="#FFFFFF" fill-rule="nonzero"></path>
                <path d="M1015.12,515.521 L1015.12,491.223 L1011.87,491.223 C1011.87,499.322 1011.87,507.422 1011.87,515.521 L1015.12,515.521 Z" id="路径" fill="#FFFFFF" fill-rule="nonzero"></path>
                <path d="M1011.87,482.056 L1015.12,482.056 L1015.12,459.116 C1015.12,457.931 1014.157,456.968 1012.972,456.968 L1011.88,456.968 C1011.879,457.002 1011.87,457.03 1011.87,457.065 C1011.87,465.395 1011.87,473.726 1011.87,482.056 Z" id="路径" fill="#FFFFFF" fill-rule="nonzero"></path>
                <path d="M1015.12,591.114 L1015.12,524.687 L1011.87,524.687 C1011.87,546.829 1011.87,568.972 1011.87,591.114 L1015.12,591.114 Z" id="路径" fill="#FFFFFF" fill-rule="nonzero"></path>
                <path d="M612.203,445.398 C624.425,445.398 636.647,445.398 648.87,445.398 C652.731,445.398 652.737,439.398 648.87,439.398 C636.648,439.398 624.426,439.398 612.203,439.398 C608.343,439.398 608.336,445.398 612.203,445.398 Z" id="路径" fill="#FFFFFF" fill-rule="nonzero"></path>
                <path d="M670.203,436.731 C666.342,436.731 666.336,442.731 670.203,442.731 C674.064,442.731 674.07,436.731 670.203,436.731 Z" id="路径" fill="#FFFFFF" fill-rule="nonzero"></path>
                <path d="M1034.438,591.114 L1024.286,591.114 L1024.286,459.117 C1024.286,452.878 1019.211,447.803 1012.972,447.803 L993.208,447.803 C988.795,447.803 984.974,450.348 983.11,454.043 C982.047,453.711 980.917,453.532 979.746,453.532 L959.982,453.532 C959.247,453.532 958.53,453.608 957.834,453.743 L957.834,436.584 C957.834,430.345 952.759,425.27 946.52,425.27 L926.756,425.27 C920.517,425.27 915.442,430.345 915.442,436.584 L915.442,473.602 C914.746,473.468 914.029,473.392 913.294,473.392 L893.53,473.392 C892.795,473.392 892.078,473.468 891.382,473.602 L891.382,459.118 C891.382,452.879 886.307,447.804 880.068,447.804 L860.304,447.804 C854.065,447.804 848.99,452.879 848.99,459.118 L848.99,591.115 L819.808,591.115 L819.808,574.41 C819.808,572.277 818.344,570.5 816.371,569.989 L816.371,559.444 C830.961,557.721 834.99,547.804 834.99,542.329 L834.99,495.639 C834.99,487.825 826.414,484.367 825.435,483.998 C824.919,483.803 824.371,483.704 823.819,483.704 L816.372,483.704 L816.372,468.236 C816.372,465.705 814.32,463.653 811.789,463.653 L740.752,463.653 C738.221,463.653 736.169,465.705 736.169,468.236 L736.169,569.988 C734.196,570.499 732.732,572.276 732.732,574.409 L732.732,591.114 L669.68,591.114 L669.68,580.997 C669.68,578.466 667.628,576.414 665.097,576.414 L641.175,576.414 C644.839,572.115 646.983,566.501 646.748,560.425 C646.746,560.371 646.742,560.319 646.739,560.266 L646.389,555.504 L686.485,555.504 C697.014,555.504 705.58,546.938 705.58,536.408 L705.58,346.594 C705.58,336.064 697.014,327.498 686.485,327.498 L615.871,327.498 C617.343,325.046 618.479,322.55 619.17,320.64 C622.104,312.535 621.675,305.511 618.084,300.855 C630.143,289.22 629.976,267.722 629.96,266.701 C629.923,264.369 628.141,262.436 625.819,262.211 C621.364,261.78 618.036,260.877 615.719,260.011 C622.582,249.804 624.708,234.571 624.959,232.596 C625.181,230.858 624.392,229.147 622.927,228.186 C621.463,227.225 619.579,227.183 618.073,228.077 C612.193,231.569 604.318,232.299 598.455,232.272 C603.783,222.251 604.649,208.268 604.748,206.272 C604.829,204.634 604.029,203.079 602.649,202.192 C601.27,201.305 599.522,201.225 598.065,201.977 C583.796,209.358 562.412,214.521 549.809,217.131 C556.031,201.977 548.561,185.813 548.171,184.989 C547.437,183.441 545.902,182.431 544.191,182.368167 C542.477,182.311 540.877,183.208 540.035,184.702 C528.817,204.615 496.852,219.712 483.507,225.327 C482.288,217.548 477.949,209.919 473.296,204.923 C472.094,203.633 470.26,203.144 468.577,203.672 C466.895,204.197 465.662,205.64 465.407,207.384 C464.34,214.685 458.662,222.368 454.483,227.513 C448.842,234.459 442.973,242.071 438.272,250.665 C429.552,266.604 428.3,284.119 428.447,298.158 C428.187,298.35 427.926,298.553 427.665,298.771 C422.295,303.247 421.173,311.218 424.585,320.642 C425.276,322.552 426.412,325.047 427.883,327.499 L357.27,327.499 C346.74,327.499 338.174,336.065 338.174,346.595 L338.174,536.409 C338.174,546.939 346.74,555.505 357.27,555.505 L416.905,555.505 L421.419,569.579 C422.232,572.109 423.444,574.4 424.955,576.415 L378.65,576.415 C376.119,576.415 374.067,578.467 374.067,580.998 L374.067,591.115 L276.369,591.115 C261.83,573.074 257.122,573.073 255.542,573.073 L234.794,573.073 L177.325,425.721 C177.12,425.194 176.813,424.722 176.44,424.312 C176.763,423.119 176.951,421.871 176.951,420.578 C176.951,419.806 176.872,419.053 176.754,418.313 L230.834,340.498 C232.547,342.061 234.378,343.559 236.338,344.974 C238.535,347.968 247.27,359.564 253.892,363.985 C254.651,364.491 255.537,364.756 256.436,364.756 C256.735,364.756 257.035,364.727 257.332,364.668 C258.524,364.43 259.573,363.728 260.248,362.718 L296.383,308.576 C297.058,307.564 297.303,306.327 297.066,305.135 C296.828,303.942 296.126,302.894 295.115,302.219 C288.492,297.8 274.429,294.182 270.823,293.302 C243.563,276.524 211.283,286.083 209.909,286.503 C207.823,287.14 206.475,289.159 206.687,291.331 C206.775,292.238 208.246,306.094 215.963,320.883 C215.781,321.068 215.605,321.262 215.452,321.482 L155.065,408.437 C151.015,410.97 148.306,415.457 148.306,420.577 C148.306,425.735 151.056,430.251 155.158,432.773 C155.178,433.267 155.259,433.766 155.448,434.252 L209.579,573.073 L206.66,573.073 C205.081,573.073 200.372,573.075 185.833,591.115 L127.345,591.115 L127.345,505.664 C127.345,499.24 122.12,494.015 115.697,494.015 L114.151,494.015 L119.634,462.104 C120.563,456.738 116.948,451.614 111.566,450.682 L103.108,449.24 C100.508,448.79 97.887,449.38 95.729,450.906 C93.571,452.432 92.139,454.706 91.698,457.304 L85.396,494.015 L79.029,494.015 L72.665,442.456 C72.572,441.702 72.183,441.015 71.583,440.548 C70.983,440.081 70.223,439.866 69.469,439.965 L58.951,441.272 C57.382,441.467 56.267,442.897 56.461,444.465 L62.578,494.015 L59.556,494.015 C53.133,494.015 47.908,499.24 47.908,505.664 L47.908,591.115 L9.304,591.115 C4.174,591.115 0,595.289 0,600.419 L0,618.465 C0,623.601 4.174,627.78 9.304,627.78 L510.605,627.78 L510.605,640.864 C510.605,647.076 515.659,652.13 521.872,652.13 C528.084,652.13 533.138,647.076 533.138,640.864 L533.138,627.778 L1034.44,627.778 C1039.57,627.778 1043.744,623.599 1043.744,618.463 L1043.744,600.418 C1043.744,595.287 1039.568,591.114 1034.438,591.114 Z M816.365,492.868 L822.849,492.868 C824.323,493.608 825.818,494.848 825.818,495.637 L825.818,542.327 C825.818,542.621 825.695,548.689 816.365,550.2 L816.365,492.868 L816.365,492.868 Z M57.073,534.88 L62.203,534.88 L118.18,534.88 L118.18,556.268 L62.203,556.268 L57.073,556.268 L57.073,534.88 Z M57.073,563.142 L62.203,563.142 L118.18,563.142 L118.18,591.114 L62.132,591.114 L57.073,591.114 L57.073,563.142 Z M447.918,575.911 C447.186,576.147 446.449,576.301 445.712,576.413 L441.484,576.413 C436.352,575.627 431.832,572.046 430.138,566.775 L426.523,555.503 L456.208,555.503 L457.054,558.138 C459.433,565.565 455.336,573.537 447.918,575.911 Z M465.827,555.504 L487.098,555.504 L479.607,576.414 L462.221,576.414 C466.548,570.62 468.14,562.912 465.827,555.504 Z M637.584,560.853 C637.845,568.611 631.769,575.154 624.002,575.454 C620.253,575.603 616.635,574.276 613.865,571.712 C611.094,569.15 609.487,565.659 609.339,561.969 L609.2,555.504 L637.192,555.504 L637.584,560.853 Z M600.031,555.504 L600.176,562.25 C600.386,567.527 602.343,572.458 605.717,576.414 L564.133,576.414 L556.642,555.504 L600.031,555.504 Z M858.151,507.955 L862.87,507.955 L882.211,507.955 L882.211,532.253 L862.87,532.253 L858.151,532.253 L858.151,507.955 Z M858.151,541.419 L862.87,541.419 L882.211,541.419 L882.211,591.114 L862.87,591.114 L858.151,591.114 L858.151,541.419 Z M893.526,482.557 L913.29,482.557 C914.475,482.557 915.438,483.52 915.438,484.705 L915.438,488.058 L915.438,591.114 L891.377,591.114 L891.377,488.065 L891.377,484.705 C891.378,483.52 892.341,482.557 893.526,482.557 Z M924.605,578.992 L928.87,578.992 L948.666,578.992 L948.666,591.114 L928.87,591.114 L924.605,591.114 L924.605,578.992 Z M959.98,462.697 L979.744,462.697 C980.929,462.697 981.892,463.66 981.892,464.845 L981.892,466.386 L981.892,591.114 L957.831,591.114 L957.831,466.382 L957.831,464.846 C957.832,463.66 958.795,462.697 959.98,462.697 Z M991.059,464.845 L991.059,459.116 C991.059,457.931 992.022,456.968 993.207,456.968 L1011.88,456.968 L1012.972,456.968 C1014.157,456.968 1015.12,457.931 1015.12,459.116 L1015.12,482.056 L1011.87,482.056 L991.059,482.056 L991.059,464.845 Z M991.059,491.222 L1011.87,491.222 L1015.12,491.222 L1015.12,515.52 L1011.87,515.52 L991.059,515.52 L991.059,491.222 Z M991.059,524.687 L1011.87,524.687 L1015.12,524.687 L1015.12,591.114 L1011.87,591.114 L1001.943,591.114 C1001.943,582.427 1001.943,573.739 1001.943,565.052 C1001.943,562.103 997.36,562.098 997.36,565.052 C997.36,573.739 997.36,582.427 997.36,591.114 L991.058,591.114 L991.058,524.687 L991.059,524.687 Z M948.666,436.583 L948.666,464.845 L948.666,569.825 L928.87,569.825 L924.605,569.825 L924.605,484.704 L924.605,436.582 C924.605,435.397 925.568,434.434 926.753,434.434 L928.397,434.434 L946.518,434.434 C947.702,434.434 948.666,435.398 948.666,436.583 Z M882.211,459.117 L882.211,484.705 L882.211,498.789 L862.87,498.789 L858.151,498.789 L858.151,459.117 C858.151,457.932 859.114,456.968999 860.299,456.968999 L862.668,456.968999 L880.064,456.968999 C881.248,456.968 882.211,457.932 882.211,459.117 Z M745.394,472.818 L807.199,472.818 L807.199,478.065 L807.199,480.265 C797.333,480.265 787.466,480.265 777.6,480.265 C774.651,480.265 774.646,484.848 777.6,484.848 C787.466,484.848 797.333,484.848 807.199,484.848 L807.199,569.825 L745.328,569.825 L745.328,559.131 C753.094,559.131 760.859,559.131 768.625,559.131 C771.574,559.131 771.579,554.548 768.625,554.548 C760.859,554.548 753.094,554.548 745.328,554.548 L745.328,477.251 L745.328,472.879 L745.328,472.817 L745.394,472.817 L745.394,472.818 Z M741.89,578.992 L810.636,578.992 L810.636,591.114 L741.89,591.114 L741.89,578.992 Z M660.507,585.58 L660.507,591.114 L569.399,591.114 L567.416,585.58 L660.507,585.58 Z M446.305,255.061 C450.654,247.111 456.221,239.899 461.59,233.289 C465.023,229.062 468.862,223.915 471.504,218.233 C473.722,222.486 475.101,227.294 474.552,231.41 C474.341,232.997 474.972,234.58 476.219,235.585 C477.465,236.589 479.147,236.871 480.653,236.326 C482.539,235.644 522.796,220.88 542.391,197.276 C543.642,203.94 543.669,213.301 536.877,220.46 C535.524,221.886 535.232,224.016 536.15,225.755 C537.067,227.492 538.975,228.454 540.934,228.139 C542.34,227.911 572.272,223 594.706,213.62 C593.445,221.138 590.876,229.558 586.792,232.499 C585.287,233.582 584.583,235.464 585.008,237.268 C585.432,239.072 586.901,240.443 588.731,240.742 C589.399,240.85 602.254,242.873 614.282,239.497 C612.645,246.039 609.784,254.091 605.468,258.047 C604.498,258.937 603.956,260.2 603.983,261.517 C604.009,262.833 604.6,264.074 605.604,264.925 C606.15,265.387 610.72,269.037 620.603,270.755 C620.071,277.195 617.996,289.882 609.966,295.739 C608.244,295.396 606.691,295.472 605.446,295.694 C603.517,296.039 601.748,296.826 600.161,297.827 L600.161,288.027 L590.995,288.027 L590.995,295.894 C530.396,301.08 468.506,293.015 452.74,290.715 L452.74,288.027 L443.574,288.027 L443.574,297.827 C441.987,296.826 440.219,296.039 438.291,295.694 C438.069,295.654 437.833,295.621 437.592,295.592 C437.617,282.675 439.069,268.289 446.305,255.061 Z M602.856,314.442 C602.139,315.64 601.221,316.623 600.163,317.444 L600.163,310.602 C601.658,308.421 604.513,305.163 607.073,304.713 C607.773,304.59 608.764,304.603 610.215,305.812 C612.274,307.527 612.032,311.158 611.704,313.17 C610.541,320.306 605.797,326.62 604.021,327.498 L600.162,327.498 L600.162,321.549 C602.514,320.33 604.459,318.458 605.823,316.178 C606.963,314.274 603.992,312.544 602.856,314.442 Z M558.916,318.331 C555.752,318.331 553.187,320.896 553.187,324.06 L553.187,327.497 L490.552,327.497 L490.552,324.06 C490.552,320.896 487.987,318.331 484.823,318.331 C481.659,318.331 479.094,320.896 479.094,324.06 L479.094,327.497 L452.741,327.497 L452.741,299.973 C466.422,301.924 504.794,306.763 548.66,306.763 C562.428,306.763 576.741,306.28 590.996,305.086 L590.996,327.496 L564.644,327.496 L564.644,324.059 C564.645,320.896 562.08,318.331 558.916,318.331 Z M433.525,305.812 C434.975,304.604 435.966,304.59 436.666,304.713 C439.225,305.164 442.081,308.421 443.575,310.603 L443.575,315.979 C442.632,315.177 441.726,314.327 440.886,313.384 C439.413,311.728 436.989,314.166 438.455,315.815 C439.978,317.527 441.706,319.021 443.574,320.323 L443.574,327.498 L439.716,327.498 C437.94,326.62 433.197,320.307 432.034,313.172 C431.708,311.159 431.465,307.528 433.525,305.812 Z M347.332,536.407 L347.332,346.594 C347.332,341.118 351.787,336.664 357.262,336.664 L686.477,336.664 C691.952,336.664 696.406,341.118 696.406,346.594 L696.406,536.408 C696.406,541.884 691.952,546.338 686.477,546.338 L641.207,546.338 L550.132,546.338 L493.608,546.338 L360.531,546.338 L357.262,546.338 C351.787,546.338 347.332,541.883 347.332,536.407 Z M383.233,585.58 L440.9,585.58 C441.797,585.686 442.7,585.758 443.613,585.758 C444.514,585.758 445.421,585.688 446.33,585.58 L476.324,585.58 L474.342,591.114 L383.234,591.114 L383.234,585.58 L383.233,585.58 Z M217.489,299.027 C217.031,297.233 216.688,295.649 216.437,294.346 C224.681,292.649 244.717,289.996 262.538,299.13 L259.776,303.268 L238.543,335.081 C225.677,324.172 219.934,308.602 217.489,299.027 Z M258.083,342.609 C257.365,342.022 256.355,341.907 255.652,342.609 C255.046,343.215 254.93,344.449 255.652,345.04 C256.702,345.899 257.753,346.759 258.803,347.618 C258.912,347.708 259.03,347.782 259.151,347.848 L255.451,353.392 C251.885,349.937 247.856,344.978 245.239,341.56 L258.163,322.195 L264.466,312.751 C265.249,313.246 266.032,313.741 266.815,314.235 C268.69,315.42 270.417,312.447 268.55,311.267 C267.825,310.809 267.099,310.35 266.374,309.892 L269.107,305.796 L271.088,302.828 C275.247,303.932 281.371,305.749 285.933,307.719 L283.738,311.008 L261.035,345.023 C260.051,344.22 259.067,343.414 258.083,342.609 Z M220.407,330.416 L223.345,332.392 C223.689,332.833 224.028,333.275 224.386,333.711 L201.478,366.674 C200.423,365.236 199.297,363.859 198.091,362.551 L220.407,330.416 Z M194.874,367.183 C196.029,368.473 197.294,369.654 198.668,370.718 L195.825,374.808 C195.703,374.638 195.547,374.48 195.34,374.346 C194.088,373.537 192.837,372.728 191.585,371.919 L194.874,367.183 Z M189.625,374.742 C190.952,375.599 192.279,376.457 193.605,377.314 C193.724,377.391 193.842,377.45 193.958,377.494 L171.708,409.509 C170.386,408.423 168.863,407.579 167.21,407.018 L189.625,374.742 Z M160.681,425.344 C158.802,424.573 157.473,422.729 157.473,420.576 C157.473,419.507 157.801,418.513 158.36,417.689 C159.288,416.321 160.855,415.42 162.629,415.42 C165.472,415.42 167.785,417.733 167.785,420.576 C167.785,423.419 165.472,425.732 162.629,425.732 C161.939,425.732 161.283,425.591 160.681,425.344 Z M165.653,435.191 L170.451,433.319 L179.14,455.597 C177.286,455.569 175.432,455.541 173.578,455.512 L165.653,435.191 Z M174.926,458.97 C176.78,458.998 178.634,459.026 180.489,459.055 L183.362,466.421 C181.519,466.421 179.675,466.421 177.832,466.421 L174.926,458.97 Z M179.897,471.72 C181.741,471.72 183.584,471.72 185.427,471.72 L206.932,526.86 C205.087,526.86 203.242,526.86 201.398,526.86 L179.897,471.72 Z M202.739,530.297 C204.584,530.297 206.429,530.297 208.274,530.297 L224.956,573.072 L219.418,573.072 L202.739,530.297 Z M207.152,582.238 L255.051,582.238 C256.659,583.059 260.279,586.569 264.332,591.114 L197.872,591.114 C201.924,586.569 205.544,583.059 207.152,582.238 Z M98.474,458.461 C98.608,457.671 99.043,456.982 99.698,456.519 C100.353,456.056 101.147,455.877 101.944,456.014 L110.402,457.456 C112.04,457.74 113.143,459.299 112.86,460.935 L111.402,469.421 L97.016,466.952 L98.474,458.461 Z M95.853,473.728 L110.238,476.197 L107.177,494.015 L92.37,494.015 L95.853,473.728 Z M73.256,494.014 L68.349,494.014 L64.602,463.656 L69.435,463.059 L73.256,494.014 Z M62.497,446.603 L67.33,446.002 L68.593,456.236 L63.76,456.833 L62.497,446.603 Z M115.698,503.18 C117.067,503.18 118.18,504.293 118.18,505.663 L118.18,528.005 L62.203,528.005 L57.073,528.005 L57.073,505.663 C57.073,504.293 58.186,503.18 59.555,503.18 L62.203,503.18 L115.698,503.18 Z M9.302,618.612 C9.237,618.612 9.164,618.548 9.164,618.463 L9.164,606.065 L9.164,600.418 C9.164,600.333 9.236,600.28 9.302,600.28 L52.49,600.28 L122.763,600.28 L510.603,600.28 L510.603,605.992 L510.603,618.612 L9.302,618.612 L9.302,618.612 Z M510.603,576.319 L510.603,591.114 L489.887,591.114 L484.077,591.114 L496.834,555.504 L501.402,555.504 L546.905,555.504 L559.663,591.114 L533.136,591.114 L533.136,576.319 C533.136,570.106 528.082,565.052 521.87,565.052 C515.657,565.051 510.603,570.105 510.603,576.319 Z M523.97,640.863 C523.97,642.021 523.028,642.963 521.87,642.963 C520.711,642.963 519.769,642.021 519.769,640.863 L519.769,576.319 C519.769,575.16 520.711,574.218 521.87,574.218 C523.028,574.218 523.97,575.16 523.97,576.319 L523.97,640.863 Z M1034.438,618.612 L533.136,618.612 L533.136,606.065 L533.136,600.28 L737.307,600.28 L815.219,600.28 L848.984,600.28 L882.211,600.28 L891.377,600.28 L915.438,600.28 L924.604,600.28 L948.665,600.28 L957.831,600.28 L981.892,600.28 L991.058,600.28 L1024.285,600.28 L1034.437,600.28 C1034.503,600.28 1034.575,600.333 1034.575,600.418 L1034.575,604.235 L1034.575,618.464 C1034.575,618.548 1034.502,618.612 1034.438,618.612 Z" id="形状" fill="#0D0E1F" fill-rule="nonzero"></path>
                <path d="M521.87,474.346 C539.981,474.346 554.716,459.611 554.716,441.5 C554.716,423.389 539.981,408.655 521.87,408.655 C503.759,408.655 489.025,423.39 489.025,441.5 C489.025,459.611 503.759,474.346 521.87,474.346 Z M521.87,417.821 C534.927,417.821 545.549,428.444 545.549,441.5 C545.549,454.557 534.926,465.179 521.87,465.179 C508.813,465.179 498.191,454.556 498.191,441.5 C498.191,428.444 508.813,417.821 521.87,417.821 Z" id="形状" fill="#0D0E1F" fill-rule="nonzero"></path>
                <path d="M649.336,361.87 L673.397,361.87 C676.403,361.87 678.839,359.433 678.839,356.428 C678.839,353.423 676.402,350.986 673.397,350.986 L649.336,350.986 C646.33,350.986 643.894,353.423 643.894,356.428 C643.894,359.433 646.33,361.87 649.336,361.87 Z" id="路径" fill="#0D0E1F" fill-rule="nonzero"></path>
                <path d="M372.157,513.874 C372.157,482.047 372.157,450.221 372.157,418.394 C372.157,413.971 365.282,413.963 365.282,418.394 C365.282,450.221 365.282,482.047 365.282,513.874 C365.282,518.298 372.157,518.305 372.157,513.874 Z" id="路径" fill="#0D0E1F" fill-rule="nonzero"></path>
                <path d="M368.72,398.916 C373.143,398.916 373.151,392.041 368.72,392.041 C364.296,392.042 364.289,398.916 368.72,398.916 Z" id="路径" fill="#0D0E1F" fill-rule="nonzero"></path>
                <path d="M368.72,381.348 C373.143,381.348 373.151,374.473 368.72,374.473 C364.296,374.473 364.289,381.348 368.72,381.348 Z" id="路径" fill="#0D0E1F" fill-rule="nonzero"></path>
                <path d="M368.72,363.78 C373.143,363.78 373.151,356.905 368.72,356.905 C364.296,356.905 364.289,363.78 368.72,363.78 Z" id="路径" fill="#0D0E1F" fill-rule="nonzero"></path>
                <path d="M574.193,522.658 C602.455,522.658 630.717,522.658 658.979,522.658 C663.402,522.658 663.41,515.783 658.979,515.783 C630.717,515.783 602.455,515.783 574.193,515.783 C569.769,515.784 569.762,522.658 574.193,522.658 Z" id="路径" fill="#0D0E1F" fill-rule="nonzero"></path>
                <path d="M672.728,515.02 C668.305,515.02 668.297,521.895 672.728,521.895 C677.152,521.895 677.159,515.02 672.728,515.02 Z" id="路径" fill="#0D0E1F" fill-rule="nonzero"></path>
                <path d="M65.093,580.519 C68.779,580.519 68.785,574.79 65.093,574.79 C61.407,574.791 61.401,580.519 65.093,580.519 Z" id="路径" fill="#0D0E1F" fill-rule="nonzero"></path>
                <path d="M76.742,580.519 C80.428,580.519 80.434,574.79 76.742,574.79 C73.055,574.791 73.049,580.519 76.742,580.519 Z" id="路径" fill="#0D0E1F" fill-rule="nonzero"></path>
                <path d="M86.863,580.519 C94.183,580.519 101.503,580.519 108.823,580.519 C112.509,580.519 112.515,574.79 108.823,574.79 C101.503,574.79 94.183,574.79 86.863,574.79 C83.176,574.791 83.17,580.519 86.863,580.519 Z" id="路径" fill="#0D0E1F" fill-rule="nonzero"></path>
                <path d="M228.603,303.598 C227.859,301.533 224.536,302.424 225.289,304.512 C226.567,308.06 228.427,311.236 230.899,314.083 C232.352,315.756 234.774,313.317 233.33,311.652 C231.261,309.271 229.672,306.566 228.603,303.598 Z" id="路径" fill="#0D0E1F" fill-rule="nonzero"></path>
                <path d="M235.814,315.753 C233.602,315.753 233.599,319.19 235.814,319.19 C238.026,319.19 238.03,315.753 235.814,315.753 Z" id="路径" fill="#0D0E1F" fill-rule="nonzero"></path>
                <path d="M903.408,508.527 C899.928,508.527 897.106,511.348 897.106,514.829 L897.106,558.654 C897.106,562.134 899.927,564.956 903.408,564.956 C906.889,564.956 909.71,562.135 909.71,558.654 L909.71,514.829 C909.71,511.349 906.888,508.527 903.408,508.527 Z" id="路径" fill="#0D0E1F" fill-rule="nonzero"></path>
                <rect id="矩形" fill="#0D0E1F" fill-rule="nonzero" x="963.847" y="486.088" width="11.744" height="20.337"></rect>
                <rect id="矩形" fill="#0D0E1F" fill-rule="nonzero" x="963.847" y="516.926" width="11.744" height="45.068"></rect>
                <path d="M941.982,488.286 C941.982,474.919 941.982,461.552 941.982,448.184 C941.982,445.235 937.399,445.23 937.399,448.184 C937.399,461.551 937.399,474.918 937.399,488.286 C937.399,491.235 941.982,491.239 941.982,488.286 Z" id="路径" fill="#0D0E1F" fill-rule="nonzero"></path>
                <path d="M939.308,500.889 C942.257,500.889 942.262,496.306 939.308,496.306 C936.36,496.306 936.355,500.889 939.308,500.889 Z" id="路径" fill="#0D0E1F" fill-rule="nonzero"></path>
                <path d="M939.308,510.437 C942.257,510.437 942.262,505.854 939.308,505.854 C936.36,505.854 936.355,510.437 939.308,510.437 Z" id="路径" fill="#0D0E1F" fill-rule="nonzero"></path>
                <path d="M999.27,555.504 C1002.219,555.504 1002.224,550.921 999.27,550.921 C996.321,550.921 996.316,555.504 999.27,555.504 Z" id="路径" fill="#0D0E1F" fill-rule="nonzero"></path>
                <path d="M877.437,565.815 C877.437,562.25 877.437,558.686 877.437,555.121 C877.437,552.172 872.854,552.167 872.854,555.121 C872.854,558.686 872.854,562.25 872.854,565.815 C872.854,568.764 877.437,568.769 877.437,565.815 Z" id="路径" fill="#0D0E1F" fill-rule="nonzero"></path>
                <path d="M874.764,571.974 C871.815,571.974 871.81,576.557 874.764,576.557 C877.713,576.557 877.718,571.974 874.764,571.974 Z" id="路径" fill="#0D0E1F" fill-rule="nonzero"></path>
                <path d="M867.603,482.175 C868.845,482.119 869.895,481.168 869.895,479.883 C869.895,478.928 869.895,477.973 869.895,477.019 C869.895,475.82 868.841,474.672 867.603,474.727 C866.362,474.783 865.311,475.734 865.311,477.019 C865.311,477.974 865.311,478.929 865.311,479.883 C865.311,481.082 866.365,482.23 867.603,482.175 Z" id="路径" fill="#0D0E1F" fill-rule="nonzero"></path>
                <path d="M867.603,472.722 C870.552,472.722 870.557,468.139 867.603,468.139 C864.654,468.139 864.649,472.722 867.603,472.722 Z" id="路径" fill="#0D0E1F" fill-rule="nonzero"></path>
                <path d="M1007.959,461.838 C1006.718,461.894 1005.667,462.845 1005.667,464.13 C1005.667,465.085 1005.667,466.04 1005.667,466.994 C1005.667,468.193 1006.721,469.341 1007.959,469.286 C1009.201,469.23 1010.251,468.279 1010.251,466.994 C1010.251,466.039 1010.251,465.084 1010.251,464.13 C1010.25,462.931 1009.196,461.782 1007.959,461.838 Z" id="路径" fill="#0D0E1F" fill-rule="nonzero"></path>
                <path d="M474.973,278.526 C488.812,280.713 502.714,281.477 516.707,280.692 C520.373,280.486 520.397,274.756 516.707,274.963 C503.242,275.718 489.82,275.107 476.496,273.001 C472.889,272.432 471.336,277.951 474.973,278.526 Z" id="路径" fill="#0D0E1F" fill-rule="nonzero"></path>
                <path d="M527.312,279.089 C530.998,279.089 531.004,273.36 527.312,273.36 C523.626,273.36 523.62,279.089 527.312,279.089 Z" id="路径" fill="#0D0E1F" fill-rule="nonzero"></path>
                <path d="M537.051,278.23 C540.737,278.23 540.743,272.501 537.051,272.501 C533.365,272.501 533.359,278.23 537.051,278.23 Z" id="路径" fill="#0D0E1F" fill-rule="nonzero"></path>
                <path d="M565.981,243.857 C569.667,243.857 569.673,238.128 565.981,238.128 C562.295,238.128 562.289,243.857 565.981,243.857 Z" id="路径" fill="#0D0E1F" fill-rule="nonzero"></path>
                <path d="M772.266,536.649 C776.175,536.649 780.372,535.561 784.283,533.303 C794.04,527.669 798.38,516.854 793.957,509.195 C789.535,501.536 777.999,499.886 768.242,505.521 C758.485,511.155 754.145,521.969 758.567,529.629 C761.217,534.219 766.421,536.649 772.266,536.649 Z M771.68,511.475 C774.527,509.831 777.595,509.029 780.34,509.029 C783.732,509.029 786.632,510.255 788.004,512.633 C790.488,516.935 787.21,523.676 780.845,527.35 C774.482,531.024 767.004,530.494 764.52,526.192 C762.037,521.889 765.316,515.149 771.68,511.475 Z" id="形状" fill="#0D0E1F" fill-rule="nonzero"></path>
                <path d="M770.637,522.676 C770.992,522.958 771.637,523.277 772.533,523.357 C773.421,523.434 774.519,523.26 775.601,522.733 C776.697,522.196 777.652,521.376 778.472,520.497 C779.288,519.62 779.919,518.773 780.514,518.102 C781.114,517.428 781.745,516.851 782.369,516.451 C782.989,516.046 783.615,515.81 784.094,515.719 C784.572,515.627 784.877,515.627 784.877,515.627 C784.877,515.627 784.655,515.45 784.167,515.247 C783.684,515.049 782.902,514.879 781.957,514.98 C781.013,515.072 779.94,515.432 778.913,516.079 C777.887,516.733 777,517.595 776.198,518.454 C775.403,519.311 774.728,520.083 774.104,520.633 C773.468,521.196 772.811,521.606 772.227,521.861 C771.643,522.108 771.122,522.204 770.748,522.212 C770.373,522.225 770.151,522.188 770.151,522.188 C770.151,522.188 770.19,522.235 770.262,522.322 C770.336,522.414 770.457,522.533 770.637,522.676 Z" id="路径" fill="#0D0E1F" fill-rule="nonzero"></path>
                <path d="M780.273,554.549 C777.324,554.549 777.319,559.132 780.273,559.132 C783.222,559.132 783.227,554.549 780.273,554.549 Z" id="路径" fill="#0D0E1F" fill-rule="nonzero"></path>
                <path d="M790.585,554.549 C787.636,554.549 787.631,559.132 790.585,559.132 C793.534,559.132 793.539,554.549 790.585,554.549 Z" id="路径" fill="#0D0E1F" fill-rule="nonzero"></path>
                <path d="M449.267,72.139 C449.267,87.116 461.451,99.3 476.428,99.3 C491.405,99.3 503.589,87.116 503.589,72.139 C503.589,57.162 491.405,44.978 476.428,44.978 C461.452,44.978 449.267,57.162 449.267,72.139 Z M476.428,54.144 C486.35,54.144 494.423,62.216 494.423,72.139 C494.423,82.061 486.35,90.134 476.428,90.134 C466.506,90.134 458.433,82.061 458.433,72.139 C458.433,62.216 466.506,54.144 476.428,54.144 Z" id="形状" fill="#0D0E1F" fill-rule="nonzero"></path>
                <path d="M584.751,130.297 C585.892,130.502 587.029,130.601 588.15,130.601 C597.265,130.601 605.374,124.069 607.039,114.79 C607.944,109.742 606.83,104.644 603.902,100.434 C600.973,96.224 596.58,93.407 591.532,92.502 C581.116,90.635 571.113,97.589 569.243,108.009 C568.338,113.056 569.452,118.155 572.38,122.365 C575.311,126.575 579.704,129.391 584.751,130.297 Z M577.139,109.426 C578.108,104.023 582.83,100.22 588.137,100.22 C588.789,100.22 589.453,100.278 590.116,100.397 C593.055,100.925 595.613,102.564 597.318,105.015 C599.023,107.467 599.672,110.435 599.144,113.374 C598.056,119.442 592.238,123.493 586.167,122.404 C583.228,121.876 580.67,120.236 578.964,117.785 C577.26,115.333 576.611,112.365 577.139,109.426 Z" id="形状" fill="#0D0E1F" fill-rule="nonzero"></path>
                <path d="M546.823,92.734 C544.642,92.34 542.56,93.793 542.167,95.973 L539.671,109.882 C539.483,110.929 539.719,112.007 540.327,112.881 C540.935,113.754 541.863,114.35 542.911,114.538 L551.246,116.033 C551.298,116.447 551.363,116.858 551.429,117.269 C549.866,117.953 548.205,118.407 546.502,118.554 C544.961,118.687 543.637,119.775 543.637,121.418 C543.637,122.864 544.951,124.416 546.502,124.282 C548.336,124.123 550.085,123.752 551.787,123.202 L545.727,127.418 C544.854,128.026 544.258,128.955 544.07,130.002 C543.882,131.049 544.118,132.128 544.726,133.001 L552.798,144.601 C554.065,146.42 556.563,146.867 558.38,145.602 L565.333,140.764 C567.102,142.142 568.987,143.353 570.972,144.385 L569.477,152.719 C569.086,154.899 570.537,156.983 572.716,157.374 L586.625,159.87 C586.86,159.912 587.097,159.933 587.333,159.933 C588.146,159.933 588.947,159.686 589.623,159.215 C590.496,158.607 591.092,157.678 591.28,156.631 L592.775,148.297 C594.996,148.019 597.184,147.539 599.323,146.862 L604.16,153.815 C604.768,154.688 605.696,155.284 606.744,155.471 C607.79,155.66 608.87,155.424 609.743,154.816 L621.343,146.745 C623.161,145.48 623.609,142.981 622.344,141.163 L617.507,134.21 C617.922,133.677 618.316,133.13 618.701,132.577 C623.205,136.65 628.059,140.292 633.273,143.419 C636.442,145.32 639.326,140.369 636.164,138.472 C631.539,135.698 627.244,132.515 623.225,128.945 L629.462,130.064 C631.64,130.456 633.726,129.005 634.118,126.825 L636.613,112.916 C637.004,110.736 635.553,108.652 633.374,108.261 L625.04,106.766 C624.763,104.544 624.284,102.357 623.606,100.218 L630.559,95.38 C632.377,94.115 632.825,91.616 631.56,89.798 L623.489,78.198 C622.881,77.325 621.952,76.729 620.906,76.541 C619.861,76.352 618.78,76.588 617.907,77.196 L610.954,82.034 C610.759,81.882 610.558,81.741 610.361,81.593 C613.643,77.075 616.466,72.281 618.769,67.175 C620.273,63.841 615.337,60.925 613.822,64.284 C611.547,69.327 608.765,74.066 605.535,78.535 C605.46,78.496 605.388,78.452 605.313,78.413 L606.809,70.079 C606.997,69.032 606.761,67.954 606.153,67.08 C605.545,66.207 604.616,65.611 603.569,65.423 L589.66,62.928 C587.481,62.535 585.396,63.987 585.004,66.167 L583.509,74.501 C581.287,74.779 579.099,75.259 576.961,75.936 L572.123,68.983 C570.857,67.164 568.358,66.718 566.541,67.982 L554.941,76.053 C554.068,76.661 553.472,77.59 553.284,78.637 C553.096,79.684 553.332,80.762 553.94,81.636 L558.778,88.589 C557.399,90.359 556.189,92.243 555.156,94.229 L546.823,92.734 Z M561.193,100.251 C562.517,97.043 564.393,94.12 566.77,91.565 C568.056,90.183 568.203,88.092 567.126,86.543 L562.815,80.347 L567.831,76.857 L572.142,83.053 C573.221,84.603 575.235,85.189 576.975,84.465 C580.196,83.125 583.589,82.382 587.056,82.256 C588.942,82.188 590.526,80.814 590.859,78.957 L592.192,71.533 L598.206,72.612 L596.873,80.036 C596.54,81.893 597.547,83.732 599.292,84.452 C602.5,85.775 605.422,87.651 607.978,90.028 C609.359,91.312 611.449,91.461 613,90.383 L619.195,86.072 L622.685,91.088 L616.49,95.399 C614.941,96.477 614.353,98.489 615.078,100.231 C616.418,103.452 617.161,106.845 617.287,110.315 C617.355,112.2 618.729,113.784 620.587,114.117 L628.01,115.449 L626.931,121.464 L619.507,120.133 C617.647,119.801 615.812,120.807 615.092,122.55 C613.767,125.761 611.892,128.683 609.516,131.237 C608.23,132.618 608.083,134.71 609.16,136.259 L613.47,142.455 L608.454,145.945 L604.144,139.749 C603.065,138.199 601.05,137.614 599.311,138.337 C596.09,139.677 592.697,140.42 589.229,140.546 C587.343,140.614 585.759,141.988 585.426,143.845 L584.095,151.269 L578.08,150.19 L579.413,142.766 C579.745,140.909 578.739,139.07 576.995,138.351 C573.786,137.027 570.865,135.151 568.309,132.774 C566.928,131.49 564.838,131.34 563.287,132.419 L557.092,136.73 L553.601,131.714 L559.798,127.403 C561.347,126.325 561.935,124.313 561.21,122.571 C559.87,119.35 559.127,115.957 559.001,112.487 C558.933,110.602 557.559,109.018 555.701,108.685 L548.277,107.353 L549.357,101.338 L556.78,102.67 C558.639,103.007 560.473,101.996 561.193,100.251 Z" id="形状" fill="#0D0E1F" fill-rule="nonzero"></path>
                <path d="M141.764,254.169 L339.408,254.169 C349.042,254.169 356.881,246.33 356.881,236.696 L356.881,116.964 C356.881,107.33 349.042,99.491 339.408,99.491 L141.764,99.491 C132.13,99.491 124.291,107.33 124.291,116.964 L124.291,236.696 C124.291,246.33 132.129,254.169 141.764,254.169 Z M133.457,116.964 C133.457,112.384 137.184,108.657 141.764,108.657 L339.408,108.657 C343.988,108.657 347.715,112.384 347.715,116.964 L347.715,236.696 C347.715,241.276 343.988,245.003 339.408,245.003 L141.764,245.003 C137.184,245.003 133.457,241.276 133.457,236.696 L133.457,116.964 Z" id="形状" fill="#0D0E1F" fill-rule="nonzero"></path>
                <path d="M146.633,238.508 L334.538,238.508 C337.855,238.508 340.553,235.81 340.553,232.493 L340.553,121.167 C340.553,117.85 337.855,115.152 334.538,115.152 L146.633,115.152 C143.316,115.152 140.618,117.85 140.618,121.167 L140.618,232.493 C140.618,235.81 143.316,238.508 146.633,238.508 Z M149.784,124.318 L331.387,124.318 L331.387,229.342 L149.784,229.342 L149.784,124.318 Z" id="形状" fill="#0D0E1F" fill-rule="nonzero"></path>
                <path d="M704.332,254.169 L901.976,254.169 C911.611,254.169 919.449,246.33 919.449,236.696 L919.449,116.964 C919.449,107.33 911.611,99.491 901.976,99.491 L704.332,99.491 C694.697,99.491 686.859,107.33 686.859,116.964 L686.859,236.696 C686.859,246.33 694.697,254.169 704.332,254.169 Z M696.025,116.964 C696.025,112.384 699.751,108.657 704.332,108.657 L901.976,108.657 C906.557,108.657 910.283,112.384 910.283,116.964 L910.283,236.696 C910.283,241.276 906.557,245.003 901.976,245.003 L704.332,245.003 C699.751,245.003 696.025,241.276 696.025,236.696 L696.025,116.964 Z" id="形状" fill="#0D0E1F" fill-rule="nonzero"></path>
                <path d="M709.202,238.508 L897.107,238.508 C900.423,238.508 903.122,235.81 903.122,232.493 L903.122,121.167 C903.122,117.85 900.423,115.152 897.107,115.152 L709.202,115.152 C705.886,115.152 703.187,117.85 703.187,121.167 L703.187,232.493 C703.187,235.81 705.885,238.508 709.202,238.508 Z M712.352,124.318 L893.955,124.318 L893.955,229.342 L712.352,229.342 L712.352,124.318 Z" id="形状" fill="#0D0E1F" fill-rule="nonzero"></path>
                <path d="M447.777,5.729 C451.463,5.729 451.469,0 447.777,0 C444.091,0.001 444.085,5.729 447.777,5.729 Z" id="路径" fill="#0D0E1F" fill-rule="nonzero"></path>
                <path d="M542.78,45.354 C546.466,45.354 546.472,39.625 542.78,39.625 C539.094,39.625 539.088,45.354 542.78,45.354 Z" id="路径" fill="#0D0E1F" fill-rule="nonzero"></path>
                <path d="M403.851,102.229 C412.18,101.055 420.097,98.633 427.668,95.077 C428.142,96.082 428.64,97.078 429.178,98.056 L419.55,107.684 C418.691,108.544 418.208,109.709 418.208,110.925 C418.208,112.141 418.691,113.306 419.551,114.166 L434.404,129.019 C436.194,130.808 439.096,130.809 440.885,129.019 L450.513,119.391 C453.956,121.286 457.579,122.789 461.343,123.883 L461.343,137.492 C461.343,140.023 463.395,142.075 465.926,142.075 L486.932,142.075 C489.463,142.075 491.515,140.023 491.515,137.492 L491.515,123.883 C492.683,123.543 493.833,123.15 494.972,122.732 C495.749,124.664 496.526,126.597 497.303,128.529 C497.88,129.963 499.214,130.973 500.827,130.53 C502.189,130.156 503.408,128.45 502.828,127.006 C501.955,124.834 501.082,122.663 500.209,120.491 C500.927,120.137 501.643,119.777 502.346,119.39 L511.974,129.018 C513.764,130.807 516.666,130.807 518.455,129.018 L533.309,114.165 C534.168,113.305 534.652,112.14 534.652,110.924 C534.652,109.708 534.169,108.543 533.309,107.683 L523.682,98.055 C525.576,94.611 527.079,90.989 528.173,87.225 L541.783,87.225 C544.314,87.225 546.366,85.173 546.366,82.642 L546.366,61.636 C546.366,59.105 544.314,57.053 541.783,57.053 L528.173,57.053 C527.933,56.229 527.666,55.415 527.387,54.604 C527.988,54.276 528.567,53.874 529.112,53.447 C531.314,51.721 533.505,49.979 535.701,48.246 C536.925,47.28 536.693,45.209 535.701,44.195 C534.515,42.983 532.858,43.242 531.65,44.195 C530.313,45.25 528.976,46.306 527.639,47.361 C526.899,47.945 526.105,48.77 525.236,49.304 C524.748,48.263 524.236,47.233 523.68,46.222 L533.307,36.595 C534.166,35.735 534.65,34.57 534.65,33.354 C534.65,32.138 534.167,30.973 533.307,30.113 L518.454,15.26 C516.664,13.471 513.762,13.471 511.972,15.26 L502.344,24.888 C498.9,22.993 495.278,21.49 491.514,20.396 L491.514,6.786 C491.514,4.255 489.462,2.203 486.931,2.203 L465.925,2.203 C463.394,2.203 461.342,4.255 461.342,6.786 L461.342,20.396 C460.616,20.607 459.899,20.847 459.184,21.089 C457.67,17.814 456.155,14.538 454.641,11.263 C453.095,7.92 448.156,10.827 449.694,14.154 C451.089,17.171 452.484,20.188 453.879,23.205 C452.741,23.731 451.614,24.282 450.512,24.889 L440.884,15.261 C439.094,13.472 436.192,13.472 434.402,15.261 L419.549,30.114 C417.759,31.904 417.759,34.806 419.549,36.596 L429.177,46.224 C427.282,49.668 425.779,53.29 424.685,57.055 L411.075,57.055 C408.544,57.055 406.492,59.107 406.492,61.638 L406.492,82.644 C406.492,85.175 408.544,87.227 411.075,87.227 L424.685,87.227 C424.935,88.085 425.212,88.934 425.503,89.777 C418.139,93.289 410.44,95.563 402.328,96.706 C398.692,97.217 400.239,102.738 403.851,102.229 Z M415.658,78.059 L415.658,66.219 L428.248,66.219 C430.405,66.219 432.269,64.716 432.727,62.608 C433.857,57.403 435.897,52.482 438.793,47.982 C439.96,46.168 439.704,43.787 438.18,42.262 L429.272,33.354 L437.644,24.982 L446.552,33.89 C448.077,35.415 450.459,35.672 452.272,34.503 C456.773,31.608 461.694,29.567 466.898,28.437 C469.005,27.979 470.509,26.115 470.509,23.958 L470.509,11.368 L482.349,11.368 L482.349,23.958 C482.349,26.115 483.852,27.979 485.96,28.437 C491.165,29.567 496.085,31.607 500.586,34.503 C502.399,35.672 504.782,35.415 506.306,33.89 L515.214,24.982 L523.586,33.354 L514.679,42.261 C513.154,43.786 512.898,46.168 514.065,47.981 C516.96,52.482 519.001,57.403 520.131,62.608 C520.589,64.715 522.453,66.219 524.61,66.219 L537.2,66.219 L537.2,78.059 L524.61,78.059 C522.453,78.059 520.589,79.562 520.131,81.67 C519.001,86.875 516.961,91.796 514.065,96.296 C512.898,98.11 513.154,100.491 514.678,102.016 L523.586,110.924 L515.214,119.296 L506.306,110.388 C504.78,108.864 502.4,108.608 500.586,109.775 C496.085,112.67 491.164,114.711 485.96,115.841 C483.852,116.299 482.349,118.163 482.349,120.32 L482.349,132.909 L470.509,132.909 L470.509,120.32 C470.509,118.163 469.006,116.299 466.898,115.841 C461.693,114.711 456.772,112.671 452.272,109.775 C450.459,108.608 448.077,108.864 446.552,110.388 L437.644,119.296 L429.272,110.924 L438.18,102.016 C439.705,100.491 439.96,98.109 438.793,96.296 C435.898,91.795 433.857,86.874 432.727,81.67 C432.269,79.563 430.405,78.059 428.248,78.059 L415.658,78.059 L415.658,78.059 Z" id="形状" fill="#0D0E1F" fill-rule="nonzero"></path>
                <path d="M393.163,102.355 C396.849,102.355 396.855,96.626 393.163,96.626 C389.476,96.627 389.47,102.355 393.163,102.355 Z" id="路径" fill="#0D0E1F" fill-rule="nonzero"></path>
                <path d="M506.975,142.075 C510.661,142.075 510.667,136.346 506.975,136.346 C503.289,136.346 503.282,142.075 506.975,142.075 Z" id="路径" fill="#0D0E1F" fill-rule="nonzero"></path>
                <path d="M538.101,118.969 C534.415,118.969 534.409,124.698 538.101,124.698 C541.787,124.698 541.794,118.969 538.101,118.969 Z" id="路径" fill="#0D0E1F" fill-rule="nonzero"></path>
                <path d="M620.978,57.098 C624.664,57.098 624.67,51.369 620.978,51.369 C617.292,51.369 617.286,57.098 620.978,57.098 Z" id="路径" fill="#0D0E1F" fill-rule="nonzero"></path>
                <path d="M643.129,148.377 C646.815,148.377 646.821,142.648 643.129,142.648 C639.443,142.648 639.437,148.377 643.129,148.377 Z" id="路径" fill="#0D0E1F" fill-rule="nonzero"></path>
            </g>
        </g>
    </g>
</svg>