<?xml version="1.0" standalone="no"?><!DOCTYPE svg PUBLIC "-//W3C//DTD SVG 1.1//EN" "http://www.w3.org/Graphics/SVG/1.1/DTD/svg11.dtd"><svg height="336" legacy-metrics="false" node-id="1" sillyvg="true" template-height="336" template-width="600" version="1.1" viewBox="0 0 600 336" width="600" xmlns="http://www.w3.org/2000/svg" xmlns:xlink="http://www.w3.org/1999/xlink"><defs node-id="64"></defs><path d="M 0.00 0.00 L 600.00 0.00 L 600.00 336.00 L 0.00 336.00 Z" fill="#efede4" fill-rule="nonzero" node-id="67" stroke="none" target-height="336" target-width="600" target-x="0" target-y="0"></path><path d="M 199.59 76.06 L 436.40 76.06 C 441.01 76.06 444.75 79.80 444.75 84.41 L 444.75 257.58 C 444.75 262.19 441.01 265.93 436.40 265.93 L 199.59 265.93 C 194.98 265.93 191.24 262.19 191.24 257.58 L 191.24 84.41 C 191.24 79.80 194.98 76.06 199.59 76.06 Z" fill="#0a090f" fill-rule="nonzero" node-id="69" stroke="none" target-height="189.87" target-width="253.51" target-x="191.24" target-y="76.06"></path><path d="M 204.38 102.14 L 431.61 102.14 C 435.41 102.14 438.49 105.22 438.49 109.02 L 438.49 251.75 C 438.49 255.55 435.41 258.63 431.61 258.63 L 204.38 258.63 C 200.58 258.63 197.50 255.55 197.50 251.75 L 197.50 109.02 C 197.50 105.22 200.58 102.14 204.38 102.14 Z" fill="#ffffff" fill-rule="nonzero" node-id="71" stroke="none" target-height="156.49" target-width="240.98999" target-x="197.5" target-y="102.14"></path><path d="M 197.79 76.06 L 438.20 76.06 C 441.81 76.07 444.74 79.00 444.75 82.61 L 444.75 89.16 L 191.24 89.16 L 191.24 82.61 C 191.25 79.00 194.18 76.07 197.79 76.06 Z" fill="#070838" fill-rule="evenodd" node-id="73" stroke="none" target-height="13.100006" target-width="253.51" target-x="191.24" target-y="76.06"></path><path d="M 210.46 89.19 C 210.46 91.26 208.79 92.93 206.72 92.93 C 204.65 92.93 202.98 91.26 202.98 89.19 C 202.98 87.12 204.65 85.45 206.72 85.45 C 208.79 85.45 210.46 87.12 210.46 89.19 Z" fill="#ff0000" fill-rule="nonzero" node-id="75" stroke="none" target-height="7.4800034" target-width="7.480011" target-x="202.98" target-y="85.45"></path><path d="M 221.84 89.19 C 221.84 91.26 220.17 92.93 218.10 92.93 C 216.03 92.93 214.36 91.26 214.36 89.19 C 214.36 87.12 216.03 85.45 218.10 85.45 C 220.17 85.45 221.84 87.12 221.84 89.19 Z" fill="#fdd501" fill-rule="nonzero" node-id="77" stroke="none" target-height="7.4800034" target-width="7.4799957" target-x="214.36" target-y="85.45"></path><path d="M 233.23 89.19 C 233.23 91.26 231.56 92.93 229.49 92.93 C 227.42 92.93 225.75 91.26 225.75 89.19 C 225.75 87.12 227.42 85.45 229.49 85.45 C 231.56 85.45 233.23 87.12 233.23 89.19 Z" fill="#55b459" fill-rule="nonzero" node-id="79" stroke="none" target-height="7.4800034" target-width="7.4799957" target-x="225.75" target-y="85.45"></path><path d="M 350.19 112.57 L 418.66 112.57 C 424.08 112.57 428.48 116.97 428.48 122.39 L 428.48 183.58 C 428.48 189.00 424.08 193.40 418.66 193.40 L 350.19 193.40 C 344.77 193.40 340.37 189.00 340.37 183.58 L 340.37 122.39 C 340.37 116.97 344.77 112.57 350.19 112.57 Z" fill="none" node-id="81" stroke="#070838" stroke-dasharray="2.31 3.47" stroke-linecap="butt" stroke-width="1.16" target-height="80.829994" target-width="88.110016" target-x="340.37" target-y="112.57"></path><path d="M 350.19 112.57 L 418.67 112.57 C 424.09 112.59 428.47 116.97 428.49 122.39 L 428.49 183.58 C 428.47 189.00 424.09 193.38 418.67 193.40 L 350.19 193.40 C 344.77 193.38 340.39 189.00 340.37 183.58 L 340.37 122.39 C 340.39 116.97 344.77 112.59 350.19 112.57 Z" fill="none" node-id="83" stroke="none" target-height="80.829994" target-width="88.119995" target-x="340.37" target-y="112.57"></path><path d="M 213.05 205.22 L 423.09 205.22 C 426.16 205.22 428.65 207.71 428.65 210.78 L 428.65 245.40 C 428.65 248.47 426.16 250.96 423.09 250.96 L 213.05 250.96 C 209.98 250.96 207.49 248.47 207.49 245.40 L 207.49 210.78 C 207.49 207.71 209.98 205.22 213.05 205.22 Z" fill="none" node-id="85" stroke="#070838" stroke-dasharray="10.28 15.42" stroke-linecap="round" stroke-width="2" target-height="45.740005" target-width="221.15999" target-x="207.49" target-y="205.22"></path><path d="M 217.30 112.57 L 318.18 112.57 C 323.60 112.57 327.99 116.96 327.99 122.38 L 327.99 183.52 C 327.99 188.94 323.60 193.33 318.18 193.33 L 217.30 193.33 C 211.88 193.33 207.49 188.94 207.49 183.52 L 207.49 122.38 C 207.49 116.96 211.88 112.57 217.30 112.57 Z" fill="none" node-id="87" stroke="#070838" stroke-dasharray="3.17 4.75" stroke-linecap="butt" stroke-width="1.58" target-height="80.76" target-width="120.499985" target-x="207.49" target-y="112.57"></path><path d="M 217.30 112.57 L 318.19 112.57 C 323.60 112.59 327.98 116.97 328.00 122.38 L 328.00 183.52 C 327.98 188.93 323.60 193.31 318.19 193.33 L 217.30 193.33 C 211.89 193.31 207.51 188.93 207.49 183.52 L 207.49 122.38 C 207.51 116.97 211.89 112.59 217.30 112.57 Z" fill="none" node-id="89" stroke="none" target-height="80.76" target-width="120.509995" target-x="207.49" target-y="112.57"></path><path d="M 267.74 162.73 C 273.14 162.73 277.52 158.35 277.52 152.95 C 277.52 147.55 273.14 143.17 267.74 143.17 C 262.34 143.17 257.96 147.55 257.96 152.95 C 257.97 158.35 262.34 162.72 267.74 162.73 Z" fill="#355da8" fill-rule="evenodd" node-id="91" stroke="none" target-height="19.559998" target-width="19.559998" target-x="257.96" target-y="143.17"></path><path d="M 261.61 152.06 L 266.85 152.06 L 266.85 146.81 L 268.63 146.81 L 268.63 152.06 L 273.88 152.06 L 273.88 153.84 L 268.63 153.84 L 268.63 159.09 L 266.85 159.09 L 266.85 153.84 L 261.61 153.84 L 261.61 152.06 Z" fill="#ffffff" fill-rule="evenodd" node-id="93" stroke="none" target-height="12.279999" target-width="12.27002" target-x="261.61" target-y="146.81"></path><path d="M 244.78 218.66 L 337.78 213.18 C 342.77 212.90 347.05 216.70 347.36 221.69 L 350.68 278.05 C 350.96 283.04 347.16 287.32 342.17 287.63 L 249.17 293.11 C 244.18 293.39 239.90 289.59 239.59 284.60 L 236.27 228.24 C 235.99 223.25 239.79 218.97 244.78 218.66 Z" fill="#fc151e" fill-rule="evenodd" node-id="95" stroke="none" target-height="79.92999" target-width="114.40999" target-x="236.27" target-y="213.18"></path><path d="M 279.27 261.86 L 285.80 282.11 L 280.63 248.46 C 281.42 236.97 295.30 238.28 297.52 245.68 L 305.01 279.88 L 301.01 245.06 C 299.91 238.46 314.87 232.28 319.01 243.92 L 324.07 288.52 L 341.30 287.64 L 327.35 315.58 L 327.29 335.58 L 270.07 335.80 L 269.80 296.05 L 262.65 268.29 C 259.23 254.08 276.85 253.66 279.27 261.86 Z" fill="#ffa100" fill-rule="evenodd" node-id="97" stroke="none" target-height="98.408005" target-width="79.065155" target-x="262.23483" target-y="237.39198"></path><path d="M 324.83 292.14 L 319.11 244.89 C 317.79 233.94 299.87 235.60 301.11 246.24 L 305.55 283.11 L 297.76 246.83 C 295.42 235.93 279.13 238.64 280.86 249.83 L 286.43 285.71 L 279.68 263.09 C 276.35 251.93 259.68 255.93 262.41 266.67 L 269.80 296.00 L 270.60 335.93 M 327.08 331.62 L 327.27 315.79 L 341.27 287.79" fill="none" node-id="99" stroke="#0a0910" stroke-linecap="round" stroke-width="1.42" target-height="98.49928" target-width="79.15024" target-x="262.11975" target-y="237.43071"></path><path d="M 269.43 259.64 L 269.43 259.64 C 272.34 258.88 275.31 260.61 276.09 263.51 L 277.84 270.09 C 277.94 270.46 277.72 270.84 277.35 270.94 L 268.20 273.37 C 268.01 273.42 267.81 273.40 267.64 273.30 C 267.47 273.20 267.35 273.04 267.30 272.85 L 265.56 266.31 C 264.79 263.40 266.52 260.42 269.43 259.64 Z" fill="none" node-id="101" stroke="#0a0910" stroke-linecap="butt" stroke-width="0.71" target-height="13.903473" target-width="12.456024" target-x="265.38397" target-y="259.46652"></path><path d="M 288.00 242.66 L 288.00 242.66 C 290.96 242.14 293.78 244.10 294.32 247.06 L 295.52 253.76 C 295.59 254.14 295.34 254.50 294.96 254.57 L 285.65 256.24 C 285.46 256.27 285.26 256.23 285.10 256.12 C 284.94 256.01 284.83 255.84 284.80 255.65 L 283.60 248.99 C 283.07 246.03 285.04 243.20 288.00 242.66 Z" fill="none" node-id="103" stroke="#0a0910" stroke-linecap="butt" stroke-width="0.71" target-height="13.631439" target-width="11.973907" target-x="283.54608" target-y="242.60855"></path><path d="M 309.50 241.00 L 309.50 241.00 C 312.50 240.82 315.08 243.09 315.28 246.09 L 315.71 252.88 C 315.73 253.26 315.44 253.59 315.06 253.62 L 305.62 254.22 C 305.43 254.23 305.24 254.17 305.09 254.04 C 304.94 253.91 304.85 253.73 304.84 253.54 L 304.41 246.78 C 304.23 243.78 306.50 241.20 309.50 241.00 Z" fill="none" node-id="105" stroke="#0a0910" stroke-linecap="butt" stroke-width="0.71" target-height="13.220001" target-width="11.299988" target-x="304.41" target-y="241"></path><path d="M 398.62 68.00 L 460.13 82.39 C 464.99 83.54 468.01 88.40 466.89 93.27 L 454.03 148.27 C 452.87 153.13 448.00 156.13 443.14 155.00 L 381.63 140.61 C 376.77 139.46 373.75 134.60 374.87 129.73 L 387.73 74.73 C 388.89 69.87 393.76 66.87 398.62 68.00 Z" fill="#0a090f" fill-rule="evenodd" node-id="107" stroke="none" target-height="87.46248" target-width="92.47342" target-x="374.6433" target-y="67.76875"></path><path d="M 428.15 112.37 L 428.15 112.37 C 426.47 109.88 427.11 106.49 429.60 104.80 L 435.23 100.98 C 435.39 100.87 435.58 100.82 435.77 100.86 C 435.96 100.90 436.13 101.01 436.23 101.17 L 441.55 109.00 C 441.77 109.33 441.68 109.77 441.36 110.00 L 435.76 113.80 C 434.56 114.62 433.09 114.94 431.66 114.67 C 430.23 114.40 428.97 113.57 428.15 112.37 Z" fill="none" node-id="109" stroke="#0a0910" stroke-linecap="butt" stroke-width="0.71" target-height="13.882172" target-width="14.435913" target-x="427.22214" target-y="100.85945"></path><path d="M 417.88 93.44 L 417.88 93.44 C 416.49 90.77 417.52 87.49 420.18 86.09 L 426.18 82.94 C 426.52 82.76 426.94 82.89 427.12 83.23 L 431.51 91.62 C 431.60 91.79 431.62 92.00 431.57 92.19 C 431.51 92.37 431.38 92.53 431.20 92.62 L 425.20 95.76 C 422.54 97.12 419.27 96.09 417.88 93.44 Z" fill="none" node-id="111" stroke="#0a0910" stroke-linecap="butt" stroke-width="0.71" target-height="13.463966" target-width="14.300049" target-x="417.26624" target-y="82.892044"></path><path d="M 397.53 60.58 L 459.00 75.00 C 463.86 76.15 466.88 81.01 465.76 85.88 L 452.90 140.88 C 451.72 145.73 446.86 148.72 442.00 147.59 L 380.54 133.20 C 375.68 132.05 372.66 127.19 373.78 122.32 L 386.64 67.32 C 387.80 62.46 392.66 59.45 397.53 60.58 Z" fill="#ffffff" fill-rule="evenodd" node-id="113" stroke="#0a090f" stroke-linecap="butt" stroke-width="1.42" target-height="87.471146" target-width="92.43121" target-x="373.55554" target-y="60.3517"></path><path d="M 457.67 129.45 C 444.88 125.17 444.47 106.07 455.67 104.64 C 435.18 96.64 443.15 76.16 466.58 81.53 C 466.88 73.90 477.64 68.40 485.52 73.38 L 523.65 97.47 L 539.91 109.00 L 538.32 199.59 L 484.12 158.77 C 477.28 154.91 468.58 156.77 459.67 153.53 C 446.78 145.67 450.21 134.07 457.67 129.45 Z" fill="#ffa100" fill-rule="evenodd" node-id="115" stroke="none" target-height="128.11047" target-width="95.999146" target-x="443.91083" target-y="71.47953"></path><path d="M 523.88 97.24 L 483.94 72.82 C 478.81 69.68 466.73 73.24 466.83 81.72 M 477.20 107.14 C 470.93 105.30 465.11 104.92 458.74 104.52 C 442.35 103.52 443.87 129.52 462.74 129.72 M 479.21 132.24 C 475.37 131.36 465.21 129.11 459.42 129.70 C 448.99 130.76 444.80 153.62 468.37 155.58 C 473.90 156.04 480.28 156.06 485.01 159.58 L 537.28 198.40 M 538.28 108.15 L 524.21 97.42 C 499.91 87.26 479.21 84.07 466.88 81.81 C 433.71 75.74 442.34 106.26 458.51 104.46" fill="none" node-id="117" stroke="#0a0910" stroke-linecap="butt" stroke-width="1.42" target-height="126.70655" target-width="94.087524" target-x="444.1925" target-y="71.69344"></path><path d="M 403.85 113.13 L 426.20 118.36 C 430.62 119.41 433.36 123.83 432.34 128.25 L 432.34 128.25 C 431.29 132.67 426.87 135.41 422.45 134.39 L 400.10 129.16 C 395.68 128.11 392.94 123.69 393.96 119.27 L 393.96 119.27 C 395.01 114.85 399.43 112.11 403.85 113.13 Z" fill="#ff0000" fill-rule="evenodd" node-id="119" stroke="none" target-height="21.669983" target-width="38.789948" target-x="393.75504" target-y="112.925"></path><path d="M 401.00 125.54 L 403.00 116.89 L 406.15 117.63 C 406.68 117.73 407.19 117.94 407.63 118.25 C 407.97 118.50 408.22 118.85 408.35 119.25 C 408.48 119.64 408.50 120.07 408.41 120.47 C 408.33 120.85 408.15 121.19 407.88 121.47 C 407.59 121.76 407.22 121.97 406.82 122.06 C 407.26 122.29 407.61 122.66 407.82 123.12 C 408.01 123.56 408.04 124.05 407.92 124.52 C 407.83 124.91 407.66 125.28 407.41 125.59 C 407.20 125.87 406.92 126.10 406.61 126.25 C 406.29 126.38 405.95 126.46 405.61 126.46 C 405.14 126.46 404.67 126.41 404.22 126.29 L 401.02 125.54 Z M 403.28 120.79 L 405.09 121.21 C 405.44 121.31 405.80 121.36 406.17 121.36 C 406.44 121.35 406.70 121.25 406.91 121.08 C 407.11 120.89 407.25 120.64 407.30 120.37 C 407.38 120.11 407.38 119.82 407.30 119.56 C 407.23 119.31 407.06 119.10 406.83 118.97 C 406.43 118.77 406.01 118.63 405.58 118.55 L 403.90 118.16 L 403.29 120.78 Z M 402.34 124.79 L 404.43 125.28 C 404.68 125.34 404.94 125.39 405.20 125.41 C 405.44 125.43 405.67 125.40 405.90 125.32 C 406.11 125.24 406.30 125.11 406.44 124.94 C 406.61 124.74 406.72 124.50 406.78 124.25 C 406.87 123.96 406.87 123.64 406.78 123.35 C 406.68 123.07 406.48 122.84 406.23 122.69 C 405.86 122.49 405.46 122.34 405.04 122.26 L 403.00 121.80 L 402.30 124.80 Z M 416.34 120.01 L 417.45 120.27 L 416.28 125.27 C 416.14 125.98 415.88 126.65 415.51 127.27 C 415.19 127.74 414.73 128.09 414.19 128.27 C 413.51 128.47 412.80 128.47 412.12 128.27 C 411.45 128.14 410.82 127.84 410.30 127.40 C 409.88 127.02 409.60 126.50 409.52 125.94 C 409.44 125.19 409.51 124.43 409.71 123.70 L 410.88 118.70 L 412.00 119.00 L 410.83 124.00 C 410.67 124.56 410.61 125.13 410.64 125.71 C 410.68 126.09 410.86 126.45 411.14 126.71 C 411.46 127.00 411.86 127.20 412.28 127.28 C 412.90 127.49 413.58 127.43 414.15 127.11 C 414.71 126.55 415.06 125.82 415.15 125.03 L 416.32 120.03 Z M 419.64 129.91 L 420.50 126.24 L 418.44 120.50 L 419.77 120.81 L 420.77 123.81 C 420.96 124.37 421.14 124.92 421.29 125.47 C 421.65 125.08 422.08 124.64 422.57 124.16 L 424.79 121.99 L 426.08 122.29 L 421.57 126.49 L 420.71 130.16 Z" fill="#ffffff" fill-rule="evenodd" node-id="121" stroke="none" target-height="13.270004" target-width="25.079987" target-x="401" target-y="116.89"></path><path d="M 391.80 98.38 L 443.53 110.48 C 444.37 110.68 444.89 111.53 444.70 112.37 L 444.70 112.37 C 444.50 113.21 443.65 113.73 442.81 113.54 L 391.08 101.44 C 390.24 101.24 389.72 100.39 389.91 99.55 L 389.91 99.55 C 390.11 98.71 390.96 98.19 391.80 98.38 Z" fill="#cbc6b8" fill-rule="evenodd" node-id="123" stroke="none" target-height="15.193321" target-width="54.823334" target-x="389.8933" target-y="98.36334"></path><path d="M 393.28 92.00 L 445.00 104.14 C 445.84 104.34 446.36 105.19 446.17 106.03 L 446.17 106.03 C 445.97 106.87 445.12 107.39 444.28 107.20 L 392.55 95.10 C 391.71 94.90 391.19 94.05 391.38 93.21 L 391.38 93.21 C 391.47 92.80 391.72 92.43 392.08 92.21 C 392.43 91.98 392.87 91.90 393.28 92.00 Z" fill="#cbc6b8" fill-rule="evenodd" node-id="125" stroke="none" target-height="15.234161" target-width="54.823334" target-x="391.36334" target-y="91.98251"></path><path d="M 394.93 85.00 L 431.30 93.51 C 432.14 93.71 432.66 94.56 432.47 95.40 L 432.47 95.40 C 432.27 96.24 431.42 96.76 430.58 96.57 L 394.21 88.06 C 393.80 87.97 393.44 87.72 393.22 87.37 C 392.99 87.02 392.91 86.59 393.00 86.18 L 393.00 86.18 C 393.09 85.76 393.35 85.41 393.72 85.18 C 394.08 84.96 394.52 84.90 394.93 85.00 Z" fill="#cbc6b8" fill-rule="evenodd" node-id="127" stroke="none" target-height="11.617722" target-width="39.49759" target-x="392.98914" target-y="84.96893"></path><path d="M 400.05 73.12 L 423.78 78.67 C 425.85 79.16 427.13 81.23 426.65 83.30 L 426.65 83.30 C 426.41 84.30 425.79 85.16 424.92 85.70 C 424.05 86.24 423.00 86.41 422.00 86.17 L 398.30 80.62 C 396.23 80.13 394.95 78.07 395.42 76.00 L 395.42 76.00 C 395.91 73.93 397.98 72.64 400.05 73.12 Z" fill="#999999" fill-rule="evenodd" node-id="129" stroke="none" target-height="13.147713" target-width="31.312286" target-x="395.38113" target-y="73.07781"></path><path d="M 106.68 95.92 L 162.77 21.53 L 164.50 19.79 L 166.52 18.62 L 168.75 18.01 L 171.07 17.98 L 173.33 18.55 L 175.46 19.75 L 220.54 53.74 L 222.28 55.47 L 223.45 57.48 L 224.06 59.72 L 224.09 62.04 L 223.52 64.30 L 222.32 66.43 L 166.22 140.82 L 164.50 142.56 L 162.48 143.73 L 160.25 144.34 L 157.93 144.37 L 155.67 143.80 L 153.54 142.60 L 108.46 108.61 L 106.72 106.88 L 105.55 104.87 L 104.94 102.63 L 104.91 100.31 L 105.48 98.05 L 106.68 95.92 Z" fill="#355da8" fill-rule="nonzero" node-id="131" stroke-linecap="butt" stroke-width="0.99999994" target-height="126.38219" target-width="119.174866" target-x="104.91217" target-y="17.983871"></path><path d="M 164.00 62.69 L 143.90 55.69 L 173.90 71.82 C 182.60 79.37 173.19 89.66 165.90 86.98 L 134.07 72.40 L 164.26 90.20 C 170.19 93.30 166.12 108.96 154.33 105.27 L 116.69 83.57 L 106.69 97.12 L 92.08 68.80 L 63.71 47.13 L 97.93 1.75 L 142.30 34.58 L 168.77 45.58 C 182.23 51.37 172.00 65.69 164.00 62.69 Z" fill="#ffa100" fill-rule="evenodd" node-id="133" stroke="none" target-height="104.04059" target-width="113.635475" target-x="63.71" target-y="1.75"></path><path d="M 112.34 80.84 L 153.51 104.72 C 163.05 110.25 172.51 94.96 163.24 89.57 L 131.13 70.91 L 164.79 86.53 C 174.90 91.22 182.55 76.58 172.58 71.24 L 140.58 54.09 L 162.71 62.32 C 173.63 66.38 180.44 50.70 170.25 46.38 L 142.40 34.57 L 100.60 4.21 M 67.72 49.46 L 92.00 68.55 L 105.95 96.62" fill="none" node-id="135" stroke="#0a0910" stroke-linecap="round" stroke-width="1.42" target-height="101.6968" target-width="109.522644" target-x="67.72" target-y="4.21"></path><path d="M 171.65 56.17 L 171.65 56.17 C 170.51 58.95 167.34 60.30 164.55 59.17 L 158.25 56.61 C 157.89 56.46 157.73 56.06 157.87 55.70 L 161.44 46.93 C 161.51 46.74 161.66 46.59 161.85 46.51 C 162.04 46.43 162.26 46.44 162.44 46.53 L 168.71 49.08 C 171.47 50.24 172.78 53.40 171.65 56.17 Z" fill="none" node-id="137" stroke="#0a0910" stroke-linecap="butt" stroke-width="0.71" target-height="13.020496" target-width="14.143051" target-x="157.87" target-y="46.50981"></path><path d="M 174.00 81.24 L 174.00 81.24 C 172.64 83.92 169.36 84.99 166.68 83.64 L 160.61 80.57 C 160.26 80.40 160.13 79.98 160.30 79.63 L 164.57 71.19 C 164.66 71.01 164.81 70.88 165.00 70.82 C 165.19 70.76 165.40 70.78 165.57 70.87 L 171.57 73.93 C 174.25 75.28 175.34 78.55 174.00 81.24 Z" fill="none" node-id="139" stroke="#0a0910" stroke-linecap="butt" stroke-width="0.71" target-height="13.398888" target-width="14.304901" target-x="160.26038" target-y="70.81785"></path><path d="M 162.43 99.40 L 162.43 99.40 C 160.77 101.90 157.40 102.59 154.89 100.95 L 149.21 97.21 C 149.05 97.11 148.93 96.94 148.89 96.75 C 148.86 96.56 148.90 96.37 149.01 96.21 L 154.22 88.31 C 154.44 87.98 154.89 87.89 155.22 88.10 L 160.87 91.83 C 162.08 92.63 162.93 93.87 163.22 95.29 C 163.51 96.71 163.23 98.19 162.43 99.40 Z" fill="none" node-id="141" stroke="#0a0910" stroke-linecap="butt" stroke-width="0.71" target-height="13.836853" target-width="14.42601" target-x="148.89386" target-y="88.00087"></path><path d="M 140.37 318.00 C 162.65 317.99 180.71 299.92 180.70 277.63 C 180.69 255.35 162.62 237.29 140.34 237.30 C 118.05 237.31 99.99 255.38 100.00 277.66 C 100.05 299.93 118.10 317.97 140.37 318.00 Z" fill="#ffffff" fill-rule="evenodd" node-id="143" stroke="#000000" stroke-linecap="butt" stroke-width="1.42" target-height="80.7" target-width="80.7" target-x="100" target-y="237.3"></path><path d="M 146.78 252.29 L 148.87 258.93 C 149.56 259.29 150.22 259.68 150.87 260.11 L 157.66 258.60 C 161.68 262.36 164.49 267.24 165.73 272.60 L 161.00 277.69 C 161.00 278.08 161.00 278.47 161.00 278.86 C 161.00 279.25 161.00 279.64 161.00 280.03 L 165.71 285.16 C 164.47 290.52 161.66 295.40 157.64 299.16 L 150.85 297.65 C 150.20 298.08 149.54 298.47 148.85 298.83 L 146.76 305.47 C 141.50 307.06 135.90 307.06 130.64 305.47 L 128.55 298.83 C 127.86 298.47 127.20 298.08 126.55 297.65 L 119.76 299.16 C 115.74 295.40 112.93 290.52 111.69 285.16 L 116.40 280.00 C 116.40 279.61 116.40 279.22 116.40 278.83 C 116.40 278.44 116.40 278.05 116.40 277.66 L 111.69 272.53 C 112.93 267.17 115.74 262.29 119.76 258.53 L 126.55 260.04 C 127.20 259.61 127.86 259.22 128.55 258.86 L 130.64 252.22 C 135.90 250.63 141.50 250.63 146.76 252.22 Z M 138.72 267.29 C 132.34 267.29 127.17 272.46 127.17 278.84 C 127.17 285.22 132.34 290.39 138.72 290.39 C 145.10 290.39 150.27 285.22 150.27 278.84 C 150.26 272.47 145.09 267.30 138.72 267.30 Z" fill="#0a090f" fill-rule="evenodd" node-id="145" stroke="none" target-height="55.63095" target-width="54.039993" target-x="111.69" target-y="251.02954"></path><path d="M 150.08 249.89 L 152.17 256.53 C 152.86 256.89 153.52 257.28 154.17 257.71 L 161.00 256.20 C 165.02 259.96 167.83 264.84 169.07 270.20 L 164.36 275.33 C 164.36 275.72 164.36 276.11 164.36 276.50 C 164.36 276.89 164.36 277.28 164.36 277.67 L 169.07 282.80 C 167.83 288.16 165.02 293.04 161.00 296.80 L 154.21 295.29 C 153.56 295.72 152.90 296.11 152.21 296.47 L 150.08 303.00 C 144.84 304.58 139.24 304.58 134.00 303.00 L 131.91 296.36 C 131.22 296.00 130.56 295.61 129.91 295.18 L 123.12 296.69 C 119.10 292.93 116.29 288.05 115.05 282.69 L 119.76 277.56 C 119.76 277.17 119.76 276.78 119.76 276.39 C 119.76 276.00 119.76 275.61 119.76 275.22 L 115.00 270.15 C 116.24 264.79 119.05 259.91 123.07 256.15 L 129.86 257.66 C 130.51 257.23 131.17 256.84 131.86 256.48 L 133.95 249.84 C 139.21 248.25 144.81 248.25 150.07 249.84 Z M 142.02 264.89 C 135.64 264.89 130.47 270.06 130.47 276.44 C 130.47 282.82 135.64 287.99 142.02 287.99 C 148.40 287.99 153.57 282.82 153.57 276.44 C 153.57 273.38 152.35 270.44 150.18 268.27 C 148.01 266.11 145.06 264.89 142.00 264.90 Z" fill="#999999" fill-rule="evenodd" node-id="147" stroke="none" target-height="55.534927" target-width="54.070007" target-x="115" target-y="248.64952"></path><path d="M 384.43 162.77 C 389.83 162.77 394.21 158.39 394.21 152.99 C 394.21 147.59 389.83 143.21 384.43 143.21 C 379.03 143.21 374.65 147.59 374.65 152.99 C 374.66 158.39 379.03 162.76 384.43 162.77 Z" fill="#355da8" fill-rule="evenodd" node-id="149" stroke="none" target-height="19.559998" target-width="19.559998" target-x="374.65" target-y="143.21"></path><path d="M 378.30 152.09 L 383.54 152.09 L 383.54 146.85 L 385.32 146.85 L 385.32 152.09 L 390.57 152.09 L 390.57 153.87 L 385.32 153.87 L 385.32 159.12 L 383.54 159.12 L 383.54 153.87 L 378.30 153.87 L 378.30 152.09 Z" fill="#ffffff" fill-rule="evenodd" node-id="151" stroke="none" target-height="12.269989" target-width="12.27002" target-x="378.3" target-y="146.85"></path><path d="M 146.17 207.25 C 136.52 202.17 133.00 207.46 129.49 211.57 C 125.10 216.71 120.04 216.74 114.98 211.57 C 111.60 208.11 105.82 201.30 97.98 210.67 C 90.83 219.25 83.60 202.54 73.17 210.23 L 72.83 211.01" fill="none" node-id="153" stroke="#ffa100" stroke-linecap="round" stroke-width="2.13" target-height="10.232346" target-width="73.34" target-x="72.83" target-y="205.2039"></path><path d="M 104.71 196.00 C 110.92 196.00 115.96 190.96 115.96 184.75 C 115.96 178.54 110.92 173.50 104.71 173.50 C 98.50 173.50 93.46 178.54 93.46 184.75 C 93.47 190.96 98.50 195.99 104.71 196.00 Z" fill="none" node-id="155" stroke="#355da8" stroke-linecap="butt" stroke-width="1.42" target-height="22.5" target-width="22.5" target-x="93.46" target-y="173.5"></path><path d="M 508.00 227.66 C 510.93 227.66 513.30 225.29 513.30 222.36 C 513.30 219.43 510.93 217.06 508.00 217.06 C 505.07 217.06 502.70 219.43 502.70 222.36 C 502.71 225.28 505.08 227.65 508.00 227.66 Z" fill="none" node-id="157" stroke="#355da8" stroke-linecap="butt" stroke-width="1.42" target-height="10.600006" target-width="10.599976" target-x="502.7" target-y="217.06"></path><path d="M 80.71 177.08 C 80.71 178.69 79.41 179.99 77.80 179.99 C 76.19 179.99 74.89 178.69 74.89 177.08 C 74.89 175.47 76.19 174.17 77.80 174.17 C 79.41 174.17 80.71 175.47 80.71 177.08 Z" fill="none" node-id="159" stroke="#0a0910" stroke-linecap="butt" stroke-width="1.42" target-height="5.8200073" target-width="5.8199997" target-x="74.89" target-y="174.17"></path><path d="M 312.79 36.26 C 315.72 36.26 318.09 33.89 318.09 30.96 C 318.09 28.03 315.72 25.66 312.79 25.66 C 309.86 25.66 307.49 28.03 307.49 30.96 C 307.50 33.88 309.87 36.25 312.79 36.26 Z" fill="none" node-id="161" stroke="#355da8" stroke-linecap="butt" stroke-width="1.42" target-height="10.599998" target-width="10.600006" target-x="307.49" target-y="25.66"></path><path d="M 324.09 57.08 C 324.09 58.69 322.79 59.99 321.18 59.99 C 319.57 59.99 318.27 58.69 318.27 57.08 C 318.27 55.47 319.57 54.17 321.18 54.17 C 322.79 54.17 324.09 55.47 324.09 57.08 Z" fill="none" node-id="163" stroke="#355da8" stroke-linecap="butt" stroke-width="1.42" target-height="5.8200035" target-width="5.8200073" target-x="318.27" target-y="54.17"></path><path d="M 439.27 28.75 C 429.62 23.67 426.10 28.96 422.59 33.07 C 418.20 38.21 413.14 38.24 408.08 33.07 C 404.70 29.61 398.92 22.80 391.08 32.17 C 384.00 40.73 376.73 24.00 366.30 31.72 L 365.96 32.50" fill="none" node-id="165" stroke="#f00000" stroke-linecap="round" stroke-width="2.13" target-height="10.232342" target-width="73.31" target-x="365.96" target-y="26.703907"></path><path d="M 436.95 288.85 C 427.30 283.77 423.78 289.06 420.27 293.17 C 415.88 298.31 410.82 298.34 405.76 293.17 C 402.38 289.71 396.60 282.90 388.76 292.27 C 381.61 300.85 374.38 284.14 363.95 291.83 L 363.61 292.61" fill="none" node-id="167" stroke="#242f92" stroke-linecap="round" stroke-width="2.13" target-height="10.23233" target-width="73.34003" target-x="363.61" target-y="286.80392"></path><path d="M 445.21 260.50 L 495.56 260.50 C 509.35 260.54 520.52 271.71 520.56 285.50 L 520.56 285.50 C 520.52 299.29 509.35 310.46 495.56 310.50 L 420.21 310.50 L 420.21 285.50 C 420.25 271.71 431.42 260.54 445.21 260.50 Z" fill="#ffffff" fill-rule="evenodd" node-id="169" stroke="none" target-height="50" target-width="100.350006" target-x="420.21" target-y="260.5"></path><path d="M 446.39 290.75 C 449.29 290.75 451.64 288.40 451.64 285.50 C 451.64 282.60 449.29 280.25 446.39 280.25 C 443.49 280.25 441.14 282.60 441.14 285.50 C 441.15 288.40 443.49 290.74 446.39 290.75 Z" fill="#fc151e" fill-rule="evenodd" node-id="171" stroke="none" target-height="10.5" target-width="10.5" target-x="441.14" target-y="280.25"></path><path d="M 470.39 290.75 C 473.29 290.75 475.64 288.40 475.64 285.50 C 475.64 282.60 473.29 280.25 470.39 280.25 C 467.49 280.25 465.14 282.60 465.14 285.50 C 465.15 288.40 467.49 290.74 470.39 290.75 Z" fill="#fc151e" fill-rule="evenodd" node-id="173" stroke="none" target-height="10.5" target-width="10.5" target-x="465.14" target-y="280.25"></path><path d="M 494.39 290.75 C 497.29 290.75 499.64 288.40 499.64 285.50 C 499.64 282.60 497.29 280.25 494.39 280.25 C 491.49 280.25 489.14 282.60 489.14 285.50 C 489.15 288.40 491.49 290.74 494.39 290.75 Z" fill="#fc151e" fill-rule="evenodd" node-id="175" stroke="none" target-height="10.5" target-width="10.5" target-x="489.14" target-y="280.25"></path></svg>